<?xml version="1.0" encoding="UTF-8" standalone="no"?>
<!-- Created with Inkscape (http://www.inkscape.org/) -->

<svg
   width="200.28958mm"
   height="266.43542mm"
   viewBox="0 0 200.28958 266.43542"
   version="1.1"
   id="svg5"
   xml:space="preserve"
   inkscape:version="1.2.2 (b0a8486541, 2022-12-01)"
   sodipodi:docname="mozambique.svg"
   inkscape:export-filename="mozambique.png"
   inkscape:export-xdpi="300"
   inkscape:export-ydpi="300"
   xmlns:inkscape="http://www.inkscape.org/namespaces/inkscape"
   xmlns:sodipodi="http://sodipodi.sourceforge.net/DTD/sodipodi-0.dtd"
   xmlns:xlink="http://www.w3.org/1999/xlink"
   xmlns="http://www.w3.org/2000/svg"
   xmlns:svg="http://www.w3.org/2000/svg"><sodipodi:namedview
     id="namedview7"
     pagecolor="#ffffff"
     bordercolor="#666666"
     borderopacity="1.0"
     inkscape:showpageshadow="2"
     inkscape:pageopacity="0.0"
     inkscape:pagecheckerboard="0"
     inkscape:deskcolor="#d1d1d1"
     inkscape:document-units="mm"
     showgrid="false"
     inkscape:zoom="9.5144352"
     inkscape:cx="454.57244"
     inkscape:cy="383.10209"
     inkscape:window-width="3840"
     inkscape:window-height="2136"
     inkscape:window-x="0"
     inkscape:window-y="0"
     inkscape:window-maximized="1"
     inkscape:current-layer="layer3" /><defs
     id="defs2"><rect
       x="820.02679"
       y="92.857362"
       width="593.12671"
       height="919.71455"
       id="rect1877" /><filter
       inkscape:collect="always"
       style="color-interpolation-filters:sRGB"
       id="filter1521"
       x="-0.17740789"
       y="-0.053160516"
       width="1.3548158"
       height="1.106321"><feGaussianBlur
         inkscape:collect="always"
         stdDeviation="0.68858064"
         id="feGaussianBlur1523" /></filter><filter
       inkscape:collect="always"
       style="color-interpolation-filters:sRGB"
       id="filter1525"
       x="-0.24293986"
       y="-0.19212674"
       width="1.4858797"
       height="1.3842535"><feGaussianBlur
         inkscape:collect="always"
         stdDeviation="0.68858064"
         id="feGaussianBlur1527" /></filter><filter
       inkscape:collect="always"
       style="color-interpolation-filters:sRGB"
       id="filter1529"
       x="-0.22953293"
       y="-0.071834308"
       width="1.4590659"
       height="1.1436686"><feGaussianBlur
         inkscape:collect="always"
         stdDeviation="0.68858064"
         id="feGaussianBlur1531" /></filter><filter
       inkscape:collect="always"
       style="color-interpolation-filters:sRGB"
       id="filter1533"
       x="-0.027086934"
       y="-0.035166703"
       width="1.0541739"
       height="1.0703334"><feGaussianBlur
         inkscape:collect="always"
         stdDeviation="0.68858064"
         id="feGaussianBlur1535" /></filter><filter
       inkscape:collect="always"
       style="color-interpolation-filters:sRGB"
       id="filter1537"
       x="-0.0521063"
       y="-0.065452738"
       width="1.1042126"
       height="1.1309055"><feGaussianBlur
         inkscape:collect="always"
         stdDeviation="0.68858064"
         id="feGaussianBlur1539" /></filter><filter
       inkscape:collect="always"
       style="color-interpolation-filters:sRGB"
       id="filter1541"
       x="-0.20845629"
       y="-0.16213636"
       width="1.4169126"
       height="1.3242727"><feGaussianBlur
         inkscape:collect="always"
         stdDeviation="0.68858064"
         id="feGaussianBlur1543" /></filter><filter
       inkscape:collect="always"
       style="color-interpolation-filters:sRGB"
       id="filter1545"
       x="-0.17313366"
       y="-0.11271861"
       width="1.3462673"
       height="1.2254372"><feGaussianBlur
         inkscape:collect="always"
         stdDeviation="0.68858064"
         id="feGaussianBlur1547" /></filter><filter
       inkscape:collect="always"
       style="color-interpolation-filters:sRGB"
       id="filter1549"
       x="-0.36507043"
       y="-0.22305232"
       width="1.7301409"
       height="1.4461046"><feGaussianBlur
         inkscape:collect="always"
         stdDeviation="0.68858064"
         id="feGaussianBlur1551" /></filter><filter
       inkscape:collect="always"
       style="color-interpolation-filters:sRGB"
       id="filter1553"
       x="-0.15822836"
       y="-0.14901393"
       width="1.3164567"
       height="1.2980279"><feGaussianBlur
         inkscape:collect="always"
         stdDeviation="0.68858064"
         id="feGaussianBlur1555" /></filter><filter
       inkscape:collect="always"
       style="color-interpolation-filters:sRGB"
       id="filter1557"
       x="-0.78923808"
       y="-0.82460897"
       width="2.5784762"
       height="2.6492179"><feGaussianBlur
         inkscape:collect="always"
         stdDeviation="0.68858064"
         id="feGaussianBlur1559" /></filter><filter
       inkscape:collect="always"
       style="color-interpolation-filters:sRGB"
       id="filter1561"
       x="-0.070233439"
       y="-0.13736813"
       width="1.1404669"
       height="1.2747363"><feGaussianBlur
         inkscape:collect="always"
         stdDeviation="0.68858064"
         id="feGaussianBlur1563" /></filter><filter
       inkscape:collect="always"
       style="color-interpolation-filters:sRGB"
       id="filter1565"
       x="-0.20576784"
       y="-0.28085309"
       width="1.4115357"
       height="1.5617062"><feGaussianBlur
         inkscape:collect="always"
         stdDeviation="0.68858064"
         id="feGaussianBlur1567" /></filter><filter
       inkscape:collect="always"
       style="color-interpolation-filters:sRGB"
       id="filter1573"
       x="-0.74778182"
       y="-0.61713639"
       width="2.4955636"
       height="2.2342728"><feGaussianBlur
         inkscape:collect="always"
         stdDeviation="0.68858064"
         id="feGaussianBlur1575" /></filter><filter
       inkscape:collect="always"
       style="color-interpolation-filters:sRGB"
       id="filter1577"
       x="-0.02409051"
       y="-0.053859328"
       width="1.048181"
       height="1.1077187"><feGaussianBlur
         inkscape:collect="always"
         stdDeviation="0.68858064"
         id="feGaussianBlur1579" /></filter><filter
       inkscape:collect="always"
       style="color-interpolation-filters:sRGB"
       id="filter1581"
       x="-0.25357652"
       y="-0.2382311"
       width="1.507153"
       height="1.4764622"><feGaussianBlur
         inkscape:collect="always"
         stdDeviation="0.68858064"
         id="feGaussianBlur1583" /></filter><filter
       inkscape:collect="always"
       style="color-interpolation-filters:sRGB"
       id="filter1585"
       x="-0.019007429"
       y="-0.019911454"
       width="1.0380149"
       height="1.0398229"><feGaussianBlur
         inkscape:collect="always"
         stdDeviation="0.68858064"
         id="feGaussianBlur1587" /></filter><filter
       inkscape:collect="always"
       style="color-interpolation-filters:sRGB"
       id="filter1589"
       x="-0.42986356"
       y="-0.37700664"
       width="1.8597271"
       height="1.7540133"><feGaussianBlur
         inkscape:collect="always"
         stdDeviation="0.68858064"
         id="feGaussianBlur1591" /></filter><filter
       inkscape:collect="always"
       style="color-interpolation-filters:sRGB"
       id="filter1593"
       x="-0.69010014"
       y="-0.61986429"
       width="2.3802003"
       height="2.2397286"><feGaussianBlur
         inkscape:collect="always"
         stdDeviation="0.68858064"
         id="feGaussianBlur1595" /></filter><filter
       inkscape:collect="always"
       style="color-interpolation-filters:sRGB"
       id="filter1597"
       x="-0.43603791"
       y="-0.66410984"
       width="1.8720758"
       height="2.3282197"><feGaussianBlur
         inkscape:collect="always"
         stdDeviation="0.68858064"
         id="feGaussianBlur1599" /></filter><filter
       inkscape:collect="always"
       style="color-interpolation-filters:sRGB"
       id="filter1601"
       x="-0.21740132"
       y="-0.10118045"
       width="1.4348026"
       height="1.2023609"><feGaussianBlur
         inkscape:collect="always"
         stdDeviation="0.68858064"
         id="feGaussianBlur1603" /></filter><filter
       inkscape:collect="always"
       style="color-interpolation-filters:sRGB"
       id="filter1605"
       x="-0.032662152"
       y="-0.04244945"
       width="1.0653243"
       height="1.0848989"><feGaussianBlur
         inkscape:collect="always"
         stdDeviation="0.68858064"
         id="feGaussianBlur1607" /></filter><filter
       inkscape:collect="always"
       style="color-interpolation-filters:sRGB"
       id="filter1613"
       x="-0.62270376"
       y="-0.3490982"
       width="2.2454075"
       height="1.6981964"><feGaussianBlur
         inkscape:collect="always"
         stdDeviation="0.68858064"
         id="feGaussianBlur1615" /></filter><filter
       inkscape:collect="always"
       style="color-interpolation-filters:sRGB"
       id="filter1617"
       x="-0.044930178"
       y="-0.035931285"
       width="1.0898604"
       height="1.0718626"><feGaussianBlur
         inkscape:collect="always"
         stdDeviation="0.68858064"
         id="feGaussianBlur1619" /></filter><filter
       inkscape:collect="always"
       style="color-interpolation-filters:sRGB"
       id="filter1625"
       x="-0.10608604"
       y="-0.15749646"
       width="1.2121721"
       height="1.3149929"><feGaussianBlur
         inkscape:collect="always"
         stdDeviation="0.68858064"
         id="feGaussianBlur1627" /></filter><filter
       inkscape:collect="always"
       style="color-interpolation-filters:sRGB"
       id="filter1629"
       x="-0.07002871"
       y="-0.11982008"
       width="1.1400574"
       height="1.2396402"><feGaussianBlur
         inkscape:collect="always"
         stdDeviation="0.68858064"
         id="feGaussianBlur1631" /></filter><filter
       inkscape:collect="always"
       style="color-interpolation-filters:sRGB"
       id="filter1633"
       x="-0.071368215"
       y="-0.12777221"
       width="1.1427364"
       height="1.2555444"><feGaussianBlur
         inkscape:collect="always"
         stdDeviation="0.68858064"
         id="feGaussianBlur1635" /></filter><filter
       inkscape:collect="always"
       style="color-interpolation-filters:sRGB"
       id="filter1637"
       x="-0.043033972"
       y="-0.051403077"
       width="1.0860679"
       height="1.1028062"><feGaussianBlur
         inkscape:collect="always"
         stdDeviation="0.68858064"
         id="feGaussianBlur1639" /></filter><filter
       inkscape:collect="always"
       style="color-interpolation-filters:sRGB"
       id="filter1641"
       x="-0.091570734"
       y="-0.13490749"
       width="1.1831415"
       height="1.269815"><feGaussianBlur
         inkscape:collect="always"
         stdDeviation="0.68858064"
         id="feGaussianBlur1643" /></filter><filter
       inkscape:collect="always"
       style="color-interpolation-filters:sRGB"
       id="filter1645"
       x="-0.13174704"
       y="-0.10888519"
       width="1.2634941"
       height="1.2177704"><feGaussianBlur
         inkscape:collect="always"
         stdDeviation="0.68858064"
         id="feGaussianBlur1647" /></filter><filter
       inkscape:collect="always"
       style="color-interpolation-filters:sRGB"
       id="filter1649"
       x="-0.079267287"
       y="-0.066484993"
       width="1.1585346"
       height="1.13297"><feGaussianBlur
         inkscape:collect="always"
         stdDeviation="0.68858064"
         id="feGaussianBlur1651" /></filter><filter
       inkscape:collect="always"
       style="color-interpolation-filters:sRGB"
       id="filter1653"
       x="-0.032597466"
       y="-0.03104829"
       width="1.0651949"
       height="1.0620966"><feGaussianBlur
         inkscape:collect="always"
         stdDeviation="0.68858064"
         id="feGaussianBlur1655" /></filter><filter
       inkscape:collect="always"
       style="color-interpolation-filters:sRGB"
       id="filter1661"
       x="-0.19433716"
       y="-0.048309011"
       width="1.3886743"
       height="1.096618"><feGaussianBlur
         inkscape:collect="always"
         stdDeviation="0.68858064"
         id="feGaussianBlur1663" /></filter><filter
       inkscape:collect="always"
       style="color-interpolation-filters:sRGB"
       id="filter1665"
       x="-0.77350922"
       y="-0.5068525"
       width="2.5470184"
       height="2.013705"><feGaussianBlur
         inkscape:collect="always"
         stdDeviation="0.68858064"
         id="feGaussianBlur1667" /></filter><filter
       inkscape:collect="always"
       style="color-interpolation-filters:sRGB"
       id="filter1669"
       x="-2.0664135"
       y="-0.76258612"
       width="5.132827"
       height="2.5251722"><feGaussianBlur
         inkscape:collect="always"
         stdDeviation="0.68858064"
         id="feGaussianBlur1671" /></filter><filter
       inkscape:collect="always"
       style="color-interpolation-filters:sRGB"
       id="filter1673"
       x="-0.09873268"
       y="-0.10615007"
       width="1.1974654"
       height="1.2123001"><feGaussianBlur
         inkscape:collect="always"
         stdDeviation="0.68858064"
         id="feGaussianBlur1675" /></filter><filter
       inkscape:collect="always"
       style="color-interpolation-filters:sRGB"
       id="filter1677"
       x="-0.038500204"
       y="-0.046499644"
       width="1.0770004"
       height="1.0929993"><feGaussianBlur
         inkscape:collect="always"
         stdDeviation="0.68858064"
         id="feGaussianBlur1679" /></filter><filter
       inkscape:collect="always"
       style="color-interpolation-filters:sRGB"
       id="filter1681"
       x="-0.25336229"
       y="-0.3942966"
       width="1.5067246"
       height="1.7885932"><feGaussianBlur
         inkscape:collect="always"
         stdDeviation="0.68858064"
         id="feGaussianBlur1683" /></filter><filter
       inkscape:collect="always"
       style="color-interpolation-filters:sRGB"
       id="filter1685"
       x="-0.047865727"
       y="-0.030464368"
       width="1.0957315"
       height="1.0609287"><feGaussianBlur
         inkscape:collect="always"
         stdDeviation="0.68858064"
         id="feGaussianBlur1687" /></filter><filter
       inkscape:collect="always"
       style="color-interpolation-filters:sRGB"
       id="filter1689"
       x="-0.034720761"
       y="-0.017518277"
       width="1.0694415"
       height="1.0350366"><feGaussianBlur
         inkscape:collect="always"
         stdDeviation="0.68858064"
         id="feGaussianBlur1691" /></filter><rect
       x="820.02679"
       y="92.857361"
       width="593.12671"
       height="919.71454"
       id="rect1877-6" /></defs><g
     inkscape:groupmode="layer"
     id="layer3"
     inkscape:label="base2"
     style="display:inline"><image
       width="200.28958"
       height="266.43542"
       preserveAspectRatio="none"
       style="display:inline;image-rendering:optimizeQuality"
       xlink:href="Mozambique_Base_Map.png"
       id="image200"
       x="0.54700899"
       y="0.19197212" /></g><g
     inkscape:label="Layer 1"
     inkscape:groupmode="layer"
     id="layer1"
     transform="translate(317.71945,189.72484)"
     style="display:inline"><path
       style="opacity:0.55;fill:none;fill-rule:evenodd;stroke:none;stroke-width:0.264583px;stroke-linecap:butt;stroke-linejoin:miter;stroke-opacity:1;filter:url(#filter1521)"
       d="m -221.837,-172.07718 -5.72185,0.4323 -2.19453,6.12141 c 0,0 -1.31265,2.45523 -1.27336,3.55434 -0.26588,8.52447 0.60984,12.3022 -0.12546,19.75783 l 4.83186,1.22096 c 0,0 0.40419,-4.54864 0.58852,-5.34445 0.18434,-0.79581 0.0451,-4.94779 0.0451,-4.94779 0,0 0.74478,-1.47585 0.11448,-2.59826 -0.6303,-1.12242 -1.21899,-3.21598 -1.21899,-3.21598 l 0.0404,-4.13153 c 0,0 1.49504,-1.73193 2.14119,-2.59468 0.54014,-0.7212 1.38164,-3.26888 1.38164,-3.26888 0,0 0.27931,-2.43158 0.76556,-2.59221 0.61751,-0.20399 0.62546,-2.39308 0.62546,-2.39308 z"
       id="path489"
       sodipodi:nodetypes="ccccccscsccscscc" /><path
       style="opacity:0.55;fill:#ff0000;fill-rule:evenodd;stroke:none;stroke-width:0.264583px;stroke-linecap:butt;stroke-linejoin:miter;stroke-opacity:1;filter:url(#filter1525)"
       d="m -222.43311,-172.2233 c 0,0 0.51772,1.48801 0.65416,1.71155 0.13644,0.22355 0.85881,1.33759 0.7104,1.56349 -0.14842,0.22589 -0.71043,0.66372 -0.56313,0.96754 0.1473,0.30382 0.67161,0.58835 0.62632,0.71866 -0.0453,0.13031 -0.67013,1.35421 -0.7657,1.6311 -0.0956,0.27689 -0.65035,1.57779 -0.56376,1.72724 0.0866,0.14946 1.19363,0.32289 1.3809,0.27338 0.18728,-0.0495 0.99957,-1.07377 0.99957,-1.07377 0,0 1.47221,-0.94536 1.62062,-1.04705 0.14842,-0.10168 2.0162,-1.90691 1.96463,-2.07056 -0.0516,-0.16365 -0.22508,-1.15266 -0.16864,-1.26614 0.0564,-0.11347 0.9071,-1.96294 0.9071,-1.96294 0,0 -1.7961,-0.41301 -2.0146,-0.39563 -0.2185,0.0174 -2.74203,0.009 -2.74203,0.009 l -2.04585,-0.7854"
       id="path493"
       sodipodi:nodetypes="csssscsscscccscc" /><path
       style="opacity:0.55;fill:#ff7f2a;fill-rule:evenodd;stroke:none;stroke-width:0.264583px;stroke-linecap:butt;stroke-linejoin:miter;stroke-opacity:1;filter:url(#filter1529)"
       d="m -222.33482,-163.90372 1.32946,-3.35834 -0.62632,-0.71866 0.56313,-0.96754 -1.07549,-2.67127 -1.9998,6.87783 -2.53464,3.24413 -0.0404,4.13153 1.14663,3.4852 -0.33308,5.26694 c 0,0 1.55397,-2.13319 1.56341,-2.25297 0.009,-0.11978 -0.18952,-3.1252 -0.18952,-3.1252 l 2.05075,-1.27253 1.88983,-3.01483 0.73892,-3.2222 0.33287,-2.41235 -0.43528,-0.79013 -0.99957,1.07377 z"
       id="path495"
       sodipodi:nodetypes="ccccccccccccccccccc" /><path
       style="opacity:0.55;fill:#ffd42a;fill-rule:evenodd;stroke:none;stroke-width:0.264583px;stroke-linecap:butt;stroke-linejoin:miter;stroke-opacity:1;filter:url(#filter1533)"
       d="m -215.34156,-170.4475 3.86317,-0.21413 1.50872,-1.36227 2.55558,-1.24869 2.71452,1.29849 2.28087,1.2283 c 0,0 -0.12406,-0.37607 0,0 0.12406,0.37607 -0.13352,1.68944 -0.0511,1.89566 0.0824,0.20623 1.97528,0.73885 2.41458,0.80215 0.43931,0.0633 1.6828,-0.0313 1.6828,-0.0313 l 1.44767,1.3516 c 0,0 1.9059,-0.88717 2.46758,-0.88717 0.56168,0 1.66916,-0.35197 1.72775,-0.55075 0.0586,-0.19878 0.11295,-1.25737 0.36283,-1.23121 0.24988,0.0262 3.30301,-0.47266 4.46991,-0.10616 1.16689,0.36651 1.27742,0.70449 1.88148,0.98853 0.60406,0.28404 1.24592,0.49979 1.55408,0.89959 0.30815,0.3998 0,0 0,0 l 3.30454,-0.87306 c 0,0 3.34113,0.16184 3.52489,0.12478 0.18377,-0.0371 0.97275,-0.65473 1.10311,-0.81992 0.13035,-0.1652 0.25483,-1.6832 0.38012,-2.26202 0.12529,-0.57882 -0.20589,-1.52927 0.64667,-1.61319 0.85256,-0.0839 5.57252,-0.47385 6.05383,-0.21432 0.48131,0.25953 2.12639,1.32142 2.45433,2.07349 0.29894,0.68555 1.68264,0.54736 1.68264,0.54736 0,0 0.0161,1.06175 -0.0626,1.94128 -0.0787,0.87952 -0.87207,2.74729 -0.94779,3.27118 -0.0757,0.5239 0.063,2.03857 0.0491,2.6302 -0.0138,0.59163 0.0834,1.07174 -0.19022,1.89228 -0.27361,0.82055 0.13718,0.3807 -1.58458,1.58036 -1.72177,1.19966 -4.57555,1.80644 -6.07638,2.62291 -1.50084,0.81647 -1.91934,1.09855 -3.2558,0.96157 -1.33645,-0.13699 -1.0401,-0.25994 -2.32732,-0.54695 -1.28722,-0.28702 -1.51085,-0.69227 -1.5174,-0.53187 -0.007,0.16039 -0.10254,0.75579 -0.44119,1.27358 -0.33865,0.5178 -3.24148,1.17127 -3.32017,1.34655 -0.0787,0.17527 -1.57863,0.0902 -1.74806,0.44389 -0.16944,0.35363 0.10786,0.37756 -0.26365,1.04515 -0.37151,0.66759 -1.04178,0.81472 -1.74975,1.0065 -0.70797,0.19177 -2.01059,0.0544 -2.5591,0.49033 -0.54852,0.43591 -0.54919,0.40386 -1.02731,0.99056 -0.47812,0.5867 -1.55253,0.77912 -2.11482,1.42237 -0.56229,0.64325 -0.84099,1.0637 -1.15905,1.94938 -0.31807,0.88568 -0.4338,1.36772 -1.14789,2.45185 -0.71408,1.08414 0.89967,1.04013 -2.26208,1.68686 -3.16175,0.64673 -6.51366,0.30909 -6.64856,0.61365 -0.13489,0.30457 0.23725,0.6147 -0.39474,1.28988 -0.63199,0.67518 -2.02883,0.33644 -2.79017,0.42475 -0.76134,0.0883 -0.37994,-0.13544 -1.37929,0.38325 -0.99935,0.51869 -2.72064,0.86656 -2.74456,1.15373 -0.0239,0.28716 0.36058,0.50546 1.90123,1.35949 1.54065,0.85404 3.68586,0.93919 3.96905,1.3824 0.28319,0.4432 1.06,0.3197 0.19544,1.14088 -0.86457,0.82117 -1.65896,0.76701 -2.19302,1.45027 -0.53405,0.68326 -2.09642,0.032 -2.50516,1.15368 -0.40874,1.12169 0.48933,-0.0565 -0.0777,2.11884 -0.56703,2.17532 0.5343,3.04787 0.30313,3.49779 -0.23118,0.44992 -1.69922,0.42464 -1.8568,0.33453 -0.15759,-0.0901 -1.56306,-1.24137 -1.56306,-1.24137 l -5.01801,-6.1665 -2.66144,-3.20904 -3.83965,-3.95281 0.41501,-7.62356 1.56341,-2.25297 -0.18952,-3.1252 2.05075,-1.27253 1.88983,-3.01483 1.07179,-5.63455 -0.43528,-0.79013 3.58525,-3.11761 -0.16864,-1.26614 z"
       id="path497"
       sodipodi:nodetypes="ccccccsssccsscssscccssssscsscssssscsscssssssssssssssssssssscccccccccccccc" /><path
       style="opacity:0.55;fill:#2c5aa0;fill-rule:evenodd;stroke:none;stroke-width:0.264583px;stroke-linecap:butt;stroke-linejoin:miter;stroke-opacity:1;filter:url(#filter1537)"
       d="m -165.50598,-171.04768 3.41932,-1.99513 5.25838,-1.91599 4.63238,1.11399 c 1.02882,0.24741 3.04701,-3.0904 3.33939,-3.14273 0.29238,-0.0523 6.33386,-1.0006 6.33386,-1.0006 0,0 1.45539,-1.25786 1.59898,-1.25786 0.14358,0 1.53733,0.40878 1.48331,0.18557 0,0 1.53678,-1.7059 1.83152,-1.61095 0.29474,0.095 2.98939,0.67251 2.98939,0.67251 l -2.35402,1.65359 c 0,0 -0.0978,1.3198 -0.0978,1.45868 0,0.13889 1.23392,2.56297 1.23392,2.56297 0,0 -4.35332,-2.04268 -4.35803,-1.90155 -0.005,0.14113 1.42574,1.66746 1.40828,1.9517 -0.0175,0.28424 -0.90162,1.58422 -0.90162,1.58422 l -0.58397,1.18676 3.47488,0.28389 c 0,0 1.00754,0.34444 0.76342,0.86733 -0.24413,0.52288 -0.98709,0.98618 -1.16947,1.15995 -0.18237,0.17377 0.35706,0.67567 0.35706,0.67567 0,0 0.83516,-0.58117 0.72318,-0.34989 -0.11197,0.23128 -0.58154,0.90539 -0.8065,0.93966 -0.22495,0.0343 -0.56291,0.10747 -0.40636,0.31103 0.15656,0.20355 2.66045,0.58141 2.53182,0.73291 -0.12862,0.15149 -1.27514,1.45115 -1.36062,1.57087 -0.0855,0.11973 -0.56407,0.44263 -0.69374,0.65493 -0.12968,0.2123 -0.11947,0.49669 -0.0511,0.69184 0.0683,0.19516 0.64239,1.29992 0.65991,1.56091 0.0175,0.26098 -0.48287,1.23539 -0.48287,1.23539 0,0 0.26259,1.09235 0.35858,1.50505 0.096,0.4127 0.4867,0.6244 0.40818,1.19841 -0.0785,0.574 -2.86764,1.39441 -3.06929,1.73492 -0.20164,0.3405 1.15041,1.27801 -0.37616,0.85081 -1.52657,-0.4272 -1.77061,-0.90669 -1.82911,-0.56994 -0.0585,0.33676 0.34812,0.87777 -0.20141,0.96527 -0.54953,0.0875 -0.68301,0.0976 -1.51002,-0.14034 -0.82702,-0.23798 -2.26076,-0.812 -2.15613,-1.06924 0.10462,-0.25725 1.02448,-1.52643 0.63396,-1.68491 -0.39052,-0.15847 -2.07895,-0.60919 -2.48436,-0.53176 -0.40542,0.0774 -2.99437,-0.1679 -3.16266,-0.0333 -0.16829,0.13465 -1.52129,-0.12165 -1.71045,-0.13997 -0.18915,-0.0183 -2.39712,-0.38438 -2.90301,-0.45769 -0.5059,-0.0733 -1.52048,0.0321 -1.78437,-0.90679 -0.2639,-0.93892 -1.18368,-3.09373 -1.29407,-3.28255 -0.1104,-0.18882 -0.0506,-0.96341 -0.4394,-0.55558 -0.38879,0.40784 -1.67678,1.11565 -1.82455,1.13309 -0.14777,0.0174 -0.86052,-0.16474 -1.13879,0.11353 -0.27826,0.27826 -1.09537,0.48545 -1.44636,0.1989 -0.35098,-0.28655 -1.83747,-1.28206 -1.97609,-1.28206 -0.13863,0 -0.27664,-0.0506 -0.98188,-0.10488 -0.70524,-0.0543 -0.71479,-0.30248 -0.71479,-0.30248 l 0.0139,-0.90981 0.94779,-3.27118 z"
       id="path499"
       sodipodi:nodetypes="cccsscsscccsccccccsscsssssscscsssssscssscssssscsssscccc" /><path
       style="font-variation-settings:normal;opacity:0.55;vector-effect:none;fill:#f4d7ee;fill-opacity:1;fill-rule:evenodd;stroke:none;stroke-width:0.264583px;stroke-linecap:butt;stroke-linejoin:miter;stroke-miterlimit:4;stroke-dasharray:none;stroke-dashoffset:0;stroke-opacity:1;-inkscape-stroke:none;filter:url(#filter1541);stop-color:#000000;stop-opacity:1"
       d="m -137.41385,-180.27544 1.5889,-1.11984 c 0,0 1.25541,-0.80123 1.36978,-0.74376 0.11438,0.0575 1.20975,0.0102 1.20975,0.0102 0,0 1.09434,-1.24996 1.20621,-1.26623 0.11187,-0.0163 1.21733,0.25154 1.21733,0.25154 0,0 -0.008,0.70579 0.14949,1.11508 0.15711,0.4093 1.3069,0.45258 1.17594,0.77808 -0.13095,0.32549 -1.07656,0.84017 -1.18829,1.12796 -0.11173,0.28778 -0.8131,0.76432 -0.82254,0.94583 -0.009,0.18151 0.17224,0.37939 0.75769,0.73929 0.58544,0.35989 1.42573,0.45305 1.21007,0.70628 -0.21566,0.25322 -1.48657,0.58366 -1.66088,0.8533 -0.1743,0.26965 0.11091,-0.16647 -0.5094,1.09733 -0.62032,1.26379 -0.40691,1.15859 -0.68525,1.18479 -0.27835,0.0262 -0.72861,-0.62679 -0.90795,-0.39524 -0.17935,0.23156 -0.53118,1.34454 -0.53118,1.34454 l -0.61644,0.44312 -0.71206,-0.39146 -0.47968,-0.33307 -1.23392,-2.56297 0.0978,-1.45868 2.35402,-1.65359 z"
       id="path501" /><path
       style="opacity:0.55;fill:#5fbcd3;fill-rule:evenodd;stroke:none;stroke-width:0.264583px;stroke-linecap:butt;stroke-linejoin:miter;stroke-opacity:1;filter:url(#filter1545)"
       d="m -131.7098,-175.78038 -0.68525,1.18479 -0.90795,-0.39524 -0.53118,1.34454 -0.61644,0.44312 -5.54977,-2.62607 1.40828,1.9517 -1.48559,2.77098 4.04331,0.75528 -1.16947,1.15995 0.35706,0.67567 0.72318,-0.34989 -0.8065,0.93966 -0.40636,0.31103 2.53182,0.73291 -2.05436,2.2258 0.60881,2.25275 -0.48287,1.23539 2.24971,-0.57398 1.35103,-1.01147 0.29238,-0.8839 0.33514,-1.45353 c 0,0 0.3517,-1.163 0.3517,-1.33926 0,-0.17626 -0.17949,-1.12853 -0.17949,-1.12853 0,0 -0.0264,-0.66569 -0.26383,-0.76992 -0.23746,-0.10422 -0.59506,-0.74311 -0.59506,-0.74311 0,0 -0.75288,-0.62465 -0.90904,-0.7918 -0.15616,-0.16714 -0.4979,-0.86578 -0.4979,-0.86578 0,0 1.05366,0.17678 1.05366,0.0436 0,-0.13319 0.89174,-1.62695 0.89174,-1.62695 l 0.43899,-0.18565 1.09813,-1.80448 c 0,0 0.73548,-0.53497 0.55486,-0.50326 -0.18062,0.0317 -0.65247,-0.042 -0.65247,-0.042 l -0.49627,-0.93237"
       id="path503" /><path
       style="opacity:0.55;fill:#536c67;fill-rule:evenodd;stroke:none;stroke-width:0.264583px;stroke-linecap:butt;stroke-linejoin:miter;stroke-opacity:1;filter:url(#filter1549)"
       d="m -267.39899,49.693036 -1.19988,-0.848326 -1.17305,1.156983 -1.53707,1.549339 -0.61678,1.316585 1.07051,0.843085 -0.56745,2.007827 1.09544,0.535176 0.23415,-2.323502 0.10458,-1.639528 1.52821,-1.554213 z"
       id="path505" /><path
       style="font-variation-settings:normal;opacity:0.55;vector-effect:none;fill:#0044aa;fill-opacity:1;fill-rule:evenodd;stroke:none;stroke-width:0.264583px;stroke-linecap:butt;stroke-linejoin:miter;stroke-miterlimit:4;stroke-dasharray:none;stroke-dashoffset:0;stroke-opacity:1;-inkscape-stroke:none;filter:url(#filter1553);stop-color:#000000;stop-opacity:1"
       d="m -269.17989,58.148375 -0.89267,8.619138 -1.89079,0.740023 -0.12498,0.986949 -0.86426,0.444741 c 0,0 -1.46124,-0.309901 -1.12404,-0.567034 0.33719,-0.257135 0.95268,-1.184047 0.63507,-1.006067 -0.31762,0.17798 -1.82841,-0.115213 -1.84388,0.239143 -0.0154,0.354357 -0.72605,1.633302 -0.72605,1.633302 l -0.86371,-1.094565 -1.38797,-1.301771 -1.07196,-1.364795 c 0,0 -0.4542,-0.797766 -0.22402,-0.963673 0.23018,-0.16591 1.08513,-1.61058 1.08513,-1.61058 l -0.14539,-1.071486 0.30842,-1.742458 c 0,0 0.68781,-0.772253 1.09188,-0.96301 0.40408,-0.190756 1.62145,-0.848034 1.62145,-0.848034 0,0 0.91324,0.355973 1.21714,0.870783 0.30389,0.514813 -0.0532,-0.140393 0.59108,0.953905 0.64425,1.094301 0.96723,1.511933 1.5642,1.805144 0.59698,0.293214 1.3464,0.08576 1.3464,0.08576 l 0.66187,-2.249802 0.36937,-0.265026 0.66771,-1.244862 v 0.357831"
       id="path507" /><path
       style="opacity:0.55;fill:#ffff00;fill-rule:evenodd;stroke:none;stroke-width:0.264583px;stroke-linecap:butt;stroke-linejoin:miter;stroke-opacity:1;filter:url(#filter1557)"
       d="m -271.92577,52.867615 -1.07531,-0.499232 c 0,0 -0.70445,-0.04252 -0.87884,0.195964 -0.17438,0.238487 -0.78516,0.737327 -1.05493,0.912307 -0.26976,0.174977 -1.37704,0.131358 -1.54257,0.16619 -0.16553,0.03483 -1.13784,0.382958 -1.29261,0.508582 -0.15476,0.125624 -0.34454,0.432768 -0.17227,0.790059 0.17227,0.357288 1.58088,0.760944 1.44177,1.137698 -0.1391,0.376756 -0.92892,0.990375 -0.94664,1.616747 -0.0177,0.626372 -0.009,1.102151 0.35714,1.390973 0.36659,0.288824 0.76556,0.726085 0.76556,0.726085 l 2.71333,-1.811044 0.65924,0.343054 0.86179,-1.368036 0.6674,-1.258435 0.56745,-2.007828 -1.07051,-0.843084"
       id="path528" /><path
       style="opacity:0.55;fill:#447821;fill-rule:evenodd;stroke:none;stroke-width:0.264583px;stroke-linecap:butt;stroke-linejoin:miter;stroke-opacity:1;filter:url(#filter1561)"
       d="m -230.60617,34.238821 -2.55047,2.591147 -0.9123,1.644536 -8.42015,3.50874 c 0,0 -5.24231,1.241835 -5.87589,1.418701 -0.63357,0.176869 -3.78829,0.727893 -3.99572,0.751838 -0.20743,0.02394 -1.6407,-0.724435 -1.6407,-0.724435 l 1.33764,-1.244187 0.11492,-1.858489 3.48589,-0.16392 c 0,0 -0.22188,0.563502 0.0828,0.601324 0.30463,0.03782 1.13529,-0.683559 1.13529,-0.683559 l 1.78062,-1.186627 c 0,0 -0.35822,-2.026179 -0.55608,-2.01648 -0.19787,0.0097 -2.34381,-0.258587 -2.55334,-0.209126 -0.20953,0.04946 -1.16197,-0.331296 -1.16197,-0.331296 l 0.0911,-1.672415 c 0,0 3.80475,-0.721699 4.1708,-0.685239 0.36605,0.03646 0.89424,0.175572 1.73363,0.122875 0.83939,-0.0527 5.32361,-1.031055 5.79726,-1.169215 0.47365,-0.13816 1.67941,-0.809048 1.67941,-0.809048 0,0 1.44328,2.419845 1.68925,2.59701 0.24596,0.177165 1.93728,-0.92669 2.15665,-0.809877 0.21938,0.116814 2.54614,0.467178 2.54614,0.467178"
       id="path530"
       sodipodi:nodetypes="ccccssccccsccssccssscssc" /><path
       style="opacity:0.55;fill:#3771c8;fill-rule:evenodd;stroke:none;stroke-width:0.264583px;stroke-linecap:butt;stroke-linejoin:miter;stroke-opacity:1;filter:url(#filter1565)"
       d="m -236.62413,32.861455 2.66505,-1.579996 2.39895,-0.372372 0.98677,-1.164016 c 0,0 -0.11672,-0.09254 0.13374,0.05165 0.25047,0.144182 1.27517,-0.222443 1.27517,-0.222443 l 0.57167,1.823685 -2.90221,3.715671 -1.28324,-0.46504 -2.15665,0.809876 -1.68925,-2.59701"
       id="path532"
       sodipodi:nodetypes="ccccscccccc" /><path
       style="font-variation-settings:normal;opacity:0.55;vector-effect:none;fill:#ffff00;fill-opacity:1;fill-rule:evenodd;stroke:none;stroke-width:0.264583px;stroke-linecap:butt;stroke-linejoin:miter;stroke-miterlimit:4;stroke-dasharray:none;stroke-dashoffset:0;stroke-opacity:1;-inkscape-stroke:none;filter:url(#filter1557);stop-color:#000000;stop-opacity:1"
       d="m -233.09344,30.722241 0.49545,-4.248957 c 0,0 -1.61751,0.297414 1.81395,-1.764866 0.1438,-0.08642 1.61146,0.666467 2.02208,1.088951 0.41062,0.422481 1.33876,1.095137 1.33876,1.095137 l -0.041,1.684287 -1.14374,0.524066 v 0 l -1.27517,0.222443 v 0 l -1.26186,0.08565 -0.98677,1.164015 z"
       id="path534"
       sodipodi:nodetypes="ccssccccccccc" /><path
       style="font-variation-settings:normal;opacity:0.55;vector-effect:none;fill:#ffdd55;fill-opacity:1;fill-rule:evenodd;stroke:none;stroke-width:0.264583px;stroke-linecap:butt;stroke-linejoin:miter;stroke-miterlimit:4;stroke-dasharray:none;stroke-dashoffset:0;stroke-opacity:1;-inkscape-stroke:none;filter:url(#filter1573);stop-color:#000000;stop-opacity:1"
       d="m -271.81073,68.867543 c 0,0 -1.8552,1.122381 -1.8552,1.297147 0,0.174765 -0.55437,1.405088 -0.27718,1.380326 0.27718,-0.02477 1.87696,-0.178454 1.87696,-0.178454 l 0.14422,-1.044281 z"
       id="path555" /><path
       style="opacity:0.55;fill:#ffcc00;fill-rule:evenodd;stroke:none;stroke-width:0.264583px;stroke-linecap:butt;stroke-linejoin:miter;stroke-opacity:1;filter:url(#filter1577)"
       d="m -299.58197,-117.9999 c 0,0 3.53388,-0.88511 0.67948,-2.01525 -0.44661,-0.17682 5.98057,-1.94051 5.98057,-1.94051 l 9.87282,-2.62869 c 0,0 11.16608,-3.73414 11.86687,-3.93804 0.70079,-0.2039 15.4078,-3.73239 15.72764,-3.94216 0.31984,-0.20978 4.36899,-2.58828 4.72763,-1.57579 0.35865,1.01249 1.30409,5.13577 1.30409,5.13577 0,0 0.99036,0.059 2.53271,2.3757 1.54235,2.3167 1.23905,2.30473 1.89344,2.20585 0.6544,-0.0989 3.32495,-1.15341 4.24977,-1.20277 0.92483,-0.0494 5.52007,-0.48006 5.52007,-0.48006 0,0 2.03899,0.30038 2.03899,1.00886 0,0.70848 1.785,3.4483 2.08048,4.32146 0.29548,0.87316 -0.0232,4.17926 -0.0479,4.72944 -0.0247,0.55018 -0.38741,2.13923 -0.38741,3.66646 0,1.52722 -1.1161,2.45028 -1.38699,3.48157 -0.27089,1.03128 -3.65103,4.29747 -3.65103,4.29747 l -2.52253,-1.7219 -0.43649,-3.6669 c 0,0 -3.82127,-1.24121 -3.92005,-0.62581 -0.0988,0.6154 -2.28529,4.57951 -2.55705,5.21958 -0.27176,0.64007 3.84031,2.2148 -0.3216,1.51207 -4.16191,-0.70274 -4.74688,-0.72742 -5.99603,-0.72742 -1.24916,0 -2.90343,-0.56647 -2.90343,-0.56647 l -1.28629,-2.98823 -2.97529,-3.67309 c 0,0 -0.15811,-2.3494 -1.23385,-0.8297 -1.07574,1.5197 -2.50989,2.63162 -2.50989,2.63162 l -1.9853,-3.14039 c 0,0 -2.34829,-0.5415 -2.83303,0.31678 -0.48473,0.85828 -3.57229,0.90929 -3.81451,1.31724 -0.24221,0.40794 0.23364,2.10726 0.15274,2.55347 -0.0809,0.44621 -1.9225,1.20617 -1.9225,1.20617 0,0 -9.02765,-1.56129 -9.494,-1.53651 -0.46635,0.0248 -3.58225,0.99382 -4.11286,0.99382 -0.53061,0 -4.5533,-1.13545 -4.5533,-1.13545 l -4.98199,-0.32785 0.1103,-0.0303 c -2.37471,-7.53181 0.90747,-1.13923 -2.90428,-8.28007 z"
       id="path576"
       sodipodi:nodetypes="csccssscssccssssscccsssscccsccsssccsccccc" /><path
       style="opacity:0.55;fill:#5fbcd3;fill-rule:evenodd;stroke:none;stroke-width:0.264583px;stroke-linecap:butt;stroke-linejoin:miter;stroke-opacity:1;filter:url(#filter1581)"
       d="m -296.52785,-119.1717 c 0.12298,0 2.59381,-0.24521 2.7343,-0.23663 0.14049,0.009 1.55781,-0.22298 1.55781,0.0444 0,0.2674 0.14781,0.54975 0.26781,0.54975 0.11999,0 1.42889,-0.68934 1.43582,-0.55968 0.007,0.12967 -0.29873,1.51955 -0.39429,1.70988 -0.0956,0.19033 -0.58053,1.15217 -0.51653,1.2648 0.064,0.11263 0.0548,0.57708 -0.2397,0.84456 -0.29448,0.26749 -0.67554,1.04304 -0.82617,1.37194 -0.15063,0.3289 -0.19037,0.47417 -0.19909,0.81141 -0.009,0.33725 -0.7802,0.7974 -0.90332,0.81478 -0.12313,0.0174 -1.23655,-0.76153 -1.23655,-0.76153 l -1.01862,-0.2092 c 0,0 -0.15186,-0.90969 -0.22794,-1.11374 -0.0761,-0.20406 -0.52918,-1.56229 -0.52918,-1.56229 0,0 -0.5773,-0.66371 -0.38723,-0.78443 0.19007,-0.12072 0.80292,-1.02032 0.80292,-1.02032 l -0.21826,-0.52697 z"
       id="path674" /><path
       style="opacity:0.55;fill:#f4d7ee;fill-rule:evenodd;stroke:none;stroke-width:0.264583px;stroke-linecap:butt;stroke-linejoin:miter;stroke-opacity:1;filter:url(#filter1585)"
       d="m -215.51906,-128.54408 c 0,0 0.88,1.94682 1.12244,2.30908 0.24244,0.36227 3.67108,4.95954 3.67108,4.95954 l 0.41208,4.25667 0.52525,0.0246 c 0,0 -0.69733,1.58186 -0.81424,1.76568 -0.11692,0.18382 -1.27407,1.68465 -1.34539,2.00127 -0.0713,0.31661 1.23353,4.8882 1.23353,4.8882 l 6.07452,0.34369 2.59039,-2.28524 c 0,0 2.82236,-2.05574 3.0671,-2.15137 0.24474,-0.0956 1.91034,-2.16229 2.26026,-2.10175 0.34992,0.0606 5.81621,0.57803 5.81621,0.57803 0,0 3.16339,0.29688 3.27151,0.75566 0.10812,0.45878 0.4259,1.82566 1.93494,1.8765 1.50903,0.0508 1.82847,-0.11924 1.99614,-0.0142 0.16766,0.10506 0.16654,1.24723 2.05673,1.4956 1.89019,0.24837 2.42402,0.0884 2.86426,0.11306 0.44024,0.0247 1.88241,0.19354 2.60994,0.94528 0.72752,0.75174 3.3479,3.0333 3.81226,3.19327 0.46436,0.15997 2.39712,1.02302 2.39712,1.02302 l -0.73965,1.50561 c 0,0 3.10088,3.493436 3.2394,3.738509 0.13852,0.24507 2.1025,3.847377 2.61513,4.474265 0.51263,0.62689 1.45194,1.222547 1.82709,2.404694 0.37514,1.182148 0.79282,2.215423 0.991,3.528256 0.19817,1.312834 0.22942,4.324025 0.35238,5.220698 0.12295,0.896675 -0.13914,2.406586 -0.13914,2.406586 0,0 11.25039,-5.473116 11.87468,-5.671154 0.62428,-0.198041 2.47914,-1.231736 2.47914,-1.231736 l 5.15382,-5.82321 3.87389,-5.120973 4.30648,-5.272395 1.48633,-2.39709 c 0,0 -0.46619,-2.15158 -0.44145,-2.82244 0.0247,-0.67086 0.65197,-3.16048 0.65197,-3.16048 0,0 4.12131,-1.52586 3.84402,-2.1917 -0.27729,-0.66585 -1.03819,-5.74559 -1.03819,-5.74559 l -2.2241,0.7081 0.72545,-1.54659 0.47223,-2.1632 -1.94315,-0.006 c 0,0 -1.97523,-0.50364 -1.1874,-0.62869 0.78783,-0.12505 1.62441,-0.64143 1.70217,-0.94939 0.0778,-0.30796 -0.48298,-4.07814 -0.48298,-4.07814 l -0.28388,-2.47955 c 0,0 -0.45957,-4.11431 -0.44022,-4.27176 0.0193,-0.15745 0.64828,-3.7822 0.64828,-3.7822 l 0.93906,-3.4168 -0.22559,-4.58791 -0.0633,-2.40076 c 0,0 -0.58993,-0.51095 -0.60232,-1.01502 -0.0124,-0.50408 -0.17741,-4.2529 -0.17741,-4.2529 0,0 1.04992,-3.54791 1.02519,-3.72441 -0.0247,-0.17649 -1.38838,-3.43298 -1.38838,-3.43298 v 0 l -3.60074,1.58545 0.76676,2.70346 -3.06929,1.73492 -0.37616,0.85081 -1.82911,-0.56994 -0.20141,0.96527 -3.66615,-1.20958 0.63396,-1.68491 -4.42436,-0.58253 -5.04274,-0.45583 -2.57775,-1.03115 -1.73347,-3.83813 -1.82455,1.13309 -1.13879,0.11353 -1.44636,0.1989 -2.95797,-1.38694 -0.84203,3.31024 -0.70893,0.98302 c 0,0 -3.96089,2.0402 -4.17638,2.11718 -0.21549,0.077 -2.77565,1.10307 -2.77565,1.10307 l -3.2558,0.96157 -2.32732,-0.54695 -1.5174,-0.53187 -0.44119,1.27358 -3.32017,1.34655 -1.74806,0.44389 -0.8845,1.66069 -3.688,0.88129 -1.7046,1.50571 c 0,0 -1.77229,0.98539 -2.18444,1.921 -0.41214,0.9356 -1.56003,3.38745 -1.56003,3.38745 l -0.93507,1.38244 c 0,0 -2.27357,0.47509 -2.59821,0.51505 -0.32464,0.04 -3.62384,0.2355 -3.62384,0.2355 l -1.75352,0.16752 -0.39474,1.28988 -2.79017,0.42475 -1.37929,0.38325 -1.38291,0.54479 -1.36165,0.60894 1.90123,1.35949 2.7791,0.9226 1.18995,0.4598 0.19544,1.14088 -0.81866,0.581 -1.37436,0.86927 -0.66103,0.33174 -1.84413,0.82194 c 0,0 0.10956,0.7356 0.11191,0.91401 0.002,0.17841 -0.18961,1.20483 -0.18961,1.20483 l -0.0335,2.19584 0.33662,1.30195 -1.8568,0.33453 -1.56306,-1.24137 z"
       id="path676"
       sodipodi:nodetypes="cscccsscccsccscsscssccssssscscccccscscccccsscccccccscsccccccccccccccccccccsccccccccccsccccccccccccccccccccccccc" /><path
       style="font-variation-settings:normal;opacity:0.55;vector-effect:none;fill:#2c5aa0;fill-opacity:1;fill-rule:evenodd;stroke:none;stroke-width:0.264583px;stroke-linecap:butt;stroke-linejoin:miter;stroke-miterlimit:4;stroke-dasharray:none;stroke-dashoffset:0;stroke-opacity:1;-inkscape-stroke:none;filter:url(#filter1589);stop-color:#000000;stop-opacity:1"
       d="m -132.76919,-155.59645 -1.70254,1.68573 c 0,0 -2.02903,-0.36041 -1.96293,-0.0634 0.0661,0.29705 2.33412,2.7611 2.33412,2.7611 l 1.50876,-0.13056 -0.17741,-4.2529"
       id="path678" /><path
       style="opacity:0.55;fill:#2c5aa0;fill-rule:evenodd;stroke:none;stroke-width:0.264583px;stroke-linecap:butt;stroke-linejoin:miter;stroke-opacity:1;filter:url(#filter1593)"
       d="m -147.59815,-89.398253 -0.85163,-2.607167 1.38367,-0.05889 c 0,0 1.06594,0.860517 1.00883,0.925049 -0.0571,0.06453 -0.23744,0.268283 -0.23744,0.268283 z"
       id="path680" /><path
       style="font-variation-settings:normal;opacity:0.55;vector-effect:none;fill:#2c5aa0;fill-opacity:1;fill-rule:evenodd;stroke:none;stroke-width:0.264583px;stroke-linecap:butt;stroke-linejoin:miter;stroke-miterlimit:4;stroke-dasharray:none;stroke-dashoffset:0;stroke-opacity:1;-inkscape-stroke:none;filter:url(#filter1597);stop-color:#000000;stop-opacity:1"
       d="m -146.81767,-95.935284 c 0,0 0.49305,0.848201 0.67824,1.094975 0.18519,0.246777 1.80617,1.580611 2.04863,1.306658 0.24246,-0.273952 1.24914,0.02742 0.6493,-0.733631 -0.59984,-0.761047 -0.76003,-1.717918 -0.76003,-1.717918 l -0.73656,0.183536 -2.10552,-0.158904"
       id="path682"
       sodipodi:nodetypes="csssccc" /><path
       style="opacity:0.55;fill:#ffd42a;fill-rule:evenodd;stroke:none;stroke-width:0.264583px;stroke-linecap:butt;stroke-linejoin:miter;stroke-opacity:1;filter:url(#filter1601)"
       d="m -210.72554,-121.27546 1.53426,-1.64651 0.55351,-2.39584 c 0,0 1.70701,2.19518 1.91641,2.39584 0.20941,0.20066 1.92509,-0.0827 2.02591,0.3453 0.10082,0.428 0.34919,2.91397 0.34919,2.91397 l -1.24086,1.82118 -1.13202,-0.63966 -1.0152,1.44687 c 0,0 -0.25889,1.234 0.18393,1.45568 0.44283,0.22168 1.53997,-0.14426 1.37907,0.34901 -0.16089,0.49327 -1.35632,1.83277 -1.35632,1.83277 0,0 0.46632,1.88899 0.55302,2.06156 0.0867,0.17256 0.42522,2.35061 0.42522,2.35061 l -2.66272,-1.3833 -1.0406,-0.29814 -1.1867,-0.30418 -0.5084,-2.25694 1.34539,-2.00127 0.81424,-1.76568 -0.52525,-0.0246 z"
       id="path684" /><path
       style="opacity:0.55;fill:#afdde9;fill-rule:evenodd;stroke:none;stroke-width:0.264583px;stroke-linecap:butt;stroke-linejoin:miter;stroke-opacity:1;filter:url(#filter1605)"
       d="m -210.71431,-108.339 -0.70419,1.26309 -0.67092,4.98326 1.94987,0.42043 c 0,0 1.28753,1.958711 1.63873,2.537833 0.35119,0.579123 2.55904,2.07276 2.76913,2.332009 0.21009,0.259249 3.51858,0.661331 3.73098,0.692578 0.2124,0.03125 1.49626,-0.457287 1.80864,-0.546528 0.31239,-0.08924 1.49932,-1.973408 1.82865,-1.872732 0.32933,0.100677 1.6815,0.08882 2.11424,0.838478 0.43273,0.74966 -0.047,1.094841 0.82574,1.384004 0.87273,0.289163 1.10968,-0.127455 1.96837,0.362474 0.85869,0.489931 1.72069,1.093605 1.89318,1.549008 0.17249,0.455404 -0.0248,0.575162 0.0863,1.399448 0.11105,0.824285 0.19896,0.881202 0.0497,1.622512 -0.14921,0.741309 1.23981,0.759105 1.14149,1.06635 -0.0983,0.307245 -0.46031,1.460315 -1.35844,1.633011 -0.89814,0.172696 -1.73215,0.547217 -1.73215,0.547217 0,0 0.12087,-0.04042 0.30852,0.717962 0.18766,0.758386 -0.3304,1.95334 -0.3304,1.95334 0,0 -1.23305,-1.134801 -1.54503,-1.134801 -0.31198,0 -2.15744,0.487098 -2.35369,0.658762 -0.19625,0.171665 -0.97506,0.145212 -1.33128,1.240798 -0.35622,1.095587 -0.69446,1.542217 -0.0337,2.064359 0.66079,0.522144 2.53025,0.281733 2.84407,1.260252 0.31383,0.978522 1.78517,-0.038 1.88414,0.439706 0.099,0.477703 0.39889,1.948487 0.45854,2.1014 0.0596,0.152911 1.26115,1.05073 1.64451,1.11319 0.38336,0.06246 1.3383,-0.306605 2.07084,0.292991 0.73254,0.599599 1.74693,1.485355 1.86481,0.86564 0.11787,-0.619717 -0.0257,-3.313318 -0.0257,-3.313318 l 1.34133,-1.217041 c 0,0 -0.18978,-0.969016 -0.55484,-1.080196 -0.36505,-0.111178 -1.12934,-0.645584 -1.12934,-0.645584 0,0 1.21703,-1.011018 1.43188,-1.097486 0.21485,-0.08647 2.42122,-1.172932 2.51256,-1.009909 0.0914,0.163023 0.33491,-0.213374 0.54634,0.849492 0.21142,1.062866 0.1535,2.093341 0.35009,2.701115 0.19659,0.607777 0.55651,1.135859 0.81542,1.533107 0.25891,0.397248 -0.23405,0.508538 0.12239,0.963917 0.35643,0.455382 1.49399,0.49476 1.49399,0.49476 0,0 0.67897,-0.385201 0.76413,-0.08071 0.0852,0.304493 0.3588,1.991225 0.39578,2.319195 0.037,0.327969 2.43032,0.642572 2.59913,0.495686 0.16881,-0.146886 1.29952,-1.093182 1.29952,-1.093182 l -0.22933,-1.270953 1.28537,-0.593626 c 0,0 0.60859,1.021032 0.80854,1.007125 0.19995,-0.01391 3.92358,0.475244 3.92358,0.475244 0,0 1.58319,-0.639054 2.25003,-0.713921 0.66685,-0.07487 3.2905,-0.827526 3.53061,-0.778299 0.24011,0.04923 0.62441,-0.536876 0.62441,-0.536876 l 2.24494,-0.884806 -0.37399,-8.284853 -1.07805,-4.316639 -2.23241,-5.652488 -5.23041,-3.363395 -1.04477,-1.18222 -0.40372,-2.00885 -2.35744,-1.30875 -2.70857,-2.4043 -2.60994,-0.94528 -2.86426,-0.11306 -1.47624,-0.58886 -0.58049,-0.90674 -1.99614,0.0142 -1.5072,-0.80625 -0.42774,-1.07025 -8.33784,-1.56671 -2.26026,2.10175 -2.12825,1.47218 -2.55484,2.21293 -0.9744,0.7515 -3.79762,-0.21487 z"
       id="path715"
       sodipodi:nodetypes="ccccsssssssssccsscscsssssscsssccscscssssccsscccscsscccccccccccccccccccccccc" /><path
       style="font-variation-settings:normal;opacity:0.55;vector-effect:none;fill:#ffff00;fill-opacity:1;fill-rule:evenodd;stroke:none;stroke-width:0.264583px;stroke-linecap:butt;stroke-linejoin:miter;stroke-miterlimit:4;stroke-dasharray:none;stroke-dashoffset:0;stroke-opacity:1;-inkscape-stroke:none;filter:url(#filter1557);stop-color:#000000;stop-opacity:1"
       d="m -175.93098,-76.73315 -0.22933,-1.270956 1.28537,-0.593624 0.80854,1.007126 -0.011,0.906081 -1.0181,0.607214 z"
       id="path717" /><path
       style="opacity:0.55;fill:none;fill-rule:evenodd;stroke:none;stroke-width:0.264583px;stroke-linecap:butt;stroke-linejoin:miter;stroke-opacity:1;filter:url(#filter1613)"
       d="m -180.22541,-78.45485 -2.25812,-0.414051 0.15136,2.951733 0.55536,1.78216 1.94718,-2.000647 z"
       id="path719" /><path
       style="opacity:0.55;fill:#916f6f;fill-rule:evenodd;stroke:none;stroke-width:0.264583px;stroke-linecap:butt;stroke-linejoin:miter;stroke-opacity:1;filter:url(#filter1617)"
       d="m -180.05642,-74.505094 -0.11492,-2.956831 -2.31219,-1.406976 -0.93781,-2.497024 -0.35009,-2.701116 -0.54634,-0.849489 -3.94444,2.107393 1.12934,0.645586 0.55484,1.080196 -1.34133,1.217041 0.0257,3.313316 v 0 l -1.86481,-0.86564 -2.07084,-0.292989 -1.64451,-1.113192 -0.45854,-2.1014 -1.17279,0.0034 -0.71135,-0.443069 -2.84407,-1.26025 0.0337,-2.064361 3.68497,-1.89956 1.54503,1.134803 0.26028,-0.787564 -0.2384,-1.883738 1.73215,-0.547217 1.35844,-1.633011 -1.14149,-1.06635 -0.0497,-1.622512 -0.0863,-1.39945 -1.89318,-1.549006 -1.96837,-0.362474 -0.393,-0.679103 c 0,0 0.34222,-0.135763 -0.43274,-0.704903 -0.77496,-0.569137 -2.11424,-0.838478 -2.11424,-0.838478 l -1.82865,1.872734 -1.80864,0.546526 -3.73098,-0.692576 c 0,0 -0.16905,0.63536 -0.19363,0.979474 -0.0246,0.344112 -1.33653,1.132139 -1.33653,1.132139 0,0 -0.33429,0.595122 -0.61104,0.430335 -0.27674,-0.164788 -1.10667,-1.351585 -1.10667,-1.351585 l -0.73803,-0.299238 -1.61475,-0.511355 c 0,0 -0.85076,-0.07159 -1.11381,0.116551 -0.26306,0.18814 -1.17113,0.777709 -1.17113,0.777709 l -0.11045,0.457655 h -0.98996 -1.56019 c 0,0 -0.62477,1.379619 -0.55438,1.610365 0.0704,0.230746 0.89596,1.192337 0.89596,1.192337 0,0 1.5262,-0.258278 1.53839,0.120631 0.0122,0.37891 -0.40725,1.209898 -0.24753,1.611615 0.15971,0.401716 1.97231,1.149215 1.97231,1.149215 l 1.3569,-1.899449 c 0,0 1.46421,0.683291 1.60098,1.082182 0.13676,0.398892 0.93133,0.861169 1.12423,0.826874 0.1929,-0.0343 -0.0975,-1.446557 0.44139,-0.971225 0.53885,0.475332 1.79255,1.379244 2.24757,1.785019 0.45503,0.405773 0.7202,-0.292951 0.64345,0.980395 -0.0768,1.273347 0.37168,1.513549 0.59227,2.783832 0.22059,1.270286 0.4565,2.00737 0.4565,2.457805 0,0.450437 -0.33197,1.261962 -0.33197,1.261962 l -1.60902,-1.69917 c 0,0 -1.21719,-0.245033 -1.1554,0.202163 0.0618,0.447193 0.58497,1.435722 0.64752,1.866887 0.0625,0.431164 -0.66739,0.868486 -0.71682,1.408295 -0.0494,0.539805 0.29255,1.61808 0.37878,2.330992 0.0862,0.712914 1.53799,1.119296 1.41614,1.499492 -0.12184,0.380193 -1.31878,0.655476 -1.54356,0.813077 -0.22478,0.157602 -1.95408,0.207161 -1.95408,0.207161 l -1.18117,-0.43108 c 0,0 -1.11054,-0.573347 -1.09807,-0.104823 0.0125,0.468524 1.03814,3.282741 1.12433,3.498755 0.0862,0.216011 0.17029,1.64774 0.0225,2.364671 -0.14776,0.716931 -0.76906,0.850659 -0.16005,1.549469 0.60901,0.698809 0.96034,0.345442 1.2788,0.908095 0.31846,0.562652 0.30628,1.123881 0.23224,1.591043 -0.074,0.467161 -0.54184,0.557022 -0.15937,1.135816 0.38248,0.578797 0.46022,0.337683 1.30851,0.912945 0.84829,0.575262 0.88499,-0.587044 0.87283,0.773647 -0.0122,1.360691 -0.25831,0.889968 -0.0245,1.698958 0.23386,0.80899 1.90241,1.766557 1.90241,1.766557 l -0.94866,0.920849 c 0,0 -0.35759,0.621455 -0.54064,0.989832 -0.18304,0.368376 -0.91357,1.31217 -0.95049,1.822134 -0.0369,0.509964 -0.55645,2.067772 -0.1627,2.326083 0.39374,0.258311 2.29701,0.466354 2.49894,-0.858471 0.20192,-1.324825 -0.3474,-1.75298 0.25305,-2.50969 0.60045,-0.75671 1.10382,-2.284605 1.40479,-2.520531 0.30097,-0.235925 2.36842,-2.287302 2.8823,-2.458126 0.51389,-0.170823 2.52639,-1.307216 2.92051,-1.578455 0.39412,-0.27124 2.49509,-3.111531 2.49509,-3.111531 0,0 0.95145,-1.31228 1.15387,-1.490122 0.20242,-0.177842 1.09518,-1.008843 1.62501,-1.41553 0.52983,-0.406686 0.68181,-0.631244 1.02431,-0.92676 0.34251,-0.295517 1.80642,-1.79865 2.31625,-2.084666 0.50982,-0.286016 1.22748,-0.693331 1.91765,-0.903784 0.69018,-0.210453 1.98028,-0.392938 2.48404,-0.564932 0.50376,-0.171995 1.08519,-0.484967 1.08519,-0.484967 z"
       id="path721"
       sodipodi:nodetypes="ccccccccccccccccccccccccccccccccsccccscscccsccccscssccsssscssccscssssccssssscssccccsssssssscsssssscc" /><path
       style="font-variation-settings:normal;opacity:0.55;vector-effect:none;fill:#ffff00;fill-opacity:1;fill-rule:evenodd;stroke:none;stroke-width:0.264583px;stroke-linecap:butt;stroke-linejoin:miter;stroke-miterlimit:4;stroke-dasharray:none;stroke-dashoffset:0;stroke-opacity:1;-inkscape-stroke:none;filter:url(#filter1557);stop-color:#000000;stop-opacity:1"
       d="m -196.03635,-67.874038 c 0.30788,-0.114588 2.01497,-1.052933 2.06301,-1.21258 0.048,-0.159647 0.70043,-0.833872 0.13509,-0.784699 -0.56533,0.04917 -1.58414,0.360797 -1.85192,0.410128 -0.26779,0.04933 -1.95539,-0.03992 -2.14511,0.08934 -0.18972,0.129268 -0.44178,0.787374 -0.0243,0.911217 0.41748,0.123844 0.39641,0.530405 1.18931,0.56737 0.7929,0.03696 0.63391,0.01923 0.63391,0.01923 z"
       id="path723" /><path
       style="opacity:0.55;fill:#ffb380;fill-rule:evenodd;stroke:none;stroke-width:0.264583px;stroke-linecap:butt;stroke-linejoin:miter;stroke-opacity:1;filter:url(#filter1625)"
       d="m -212.08942,-102.09269 1.94987,0.42043 1.63873,2.537834 2.76913,2.332011 -0.19363,0.979509 -1.33653,1.132141 -0.61104,0.430334 -1.10667,-1.351584 -2.35278,-0.810593 -1.11381,0.116549 -1.17113,0.77771 -1.10041,0.457656 h -1.56019 l -0.55438,1.610365 0.89596,1.192337 c 0,0 -1.25335,0.668194 -2.0672,0.668194 -0.81384,0 -1.56689,-0.577694 -1.56689,-0.577694 0,0 0.35582,-1.192006 -0.15441,-1.381196 -0.51023,-0.18919 -1.56109,-0.63894 -1.56109,-0.63894 0,0 -0.13601,-1.873279 0.24416,-2.178129 0.38018,-0.304848 2.22439,-1.122791 2.22439,-1.122791 0,0 3.30444,-0.258506 3.75243,-0.258506 0.44799,0 2.97549,-1.484453 2.97549,-1.484453 l -0.14743,-1.264884 z"
       id="path767"
       sodipodi:nodetypes="cccccccccccccccscscscsccc" /><path
       style="opacity:0.55;fill:#37483e;fill-rule:evenodd;stroke:none;stroke-width:0.264583px;stroke-linecap:butt;stroke-linejoin:miter;stroke-opacity:1;filter:url(#filter1629)"
       d="m -296.67283,-104.15265 c 0.55974,0.1187 4.87274,0.6794 5.35603,0.6794 0.48329,0 1.89696,0.73673 3.28519,0.47171 1.95107,-0.37247 6.12107,0.94274 6.67193,1.84575 0.52652,0.86312 4.72629,1.825999 5.07325,2.115998 0.34696,0.290002 1.16725,0.0935 1.89806,1.440798 0.79811,1.471373 1.31434,1.649076 1.31434,1.649076 l -0.51808,-2.118972 c 0,0 -0.91877,-2.5833 -1.13828,-2.95884 -0.21951,-0.37555 -0.13135,-1.57053 -1.283,-2.00802 -1.15164,-0.4375 -4.00562,-0.4375 -4.00562,-0.4375 h -1.3596 c 0,0 -0.89971,-1.71959 -1.48145,-1.67027 -0.58175,0.0493 -1.44186,-1.16821 -1.94244,-1.25274 -0.50057,-0.0845 -2.4502,-1.83 -2.4502,-1.83 l -6.53779,-1.08066 -2.76581,-0.43529"
       id="path769"
       sodipodi:nodetypes="csssssccssccccccc" /><path
       style="opacity:0.55;fill:#ff9955;fill-rule:evenodd;stroke:none;stroke-width:0.264583px;stroke-linecap:butt;stroke-linejoin:miter;stroke-opacity:1;filter:url(#filter1633)"
       d="m -287.2527,-108.22626 4.11286,-0.99382 7.23191,1.14893 2.26209,0.38758 c 0,0 1.20845,1.74743 2.19355,2.63398 0.98509,0.88656 2.51122,1.46419 3.76698,1.87604 1.25577,0.41186 2.66431,0.9201 2.99925,0.9201 0.33494,0 0.40379,0.3797 0.58052,1.23125 0.17673,0.85156 -2.39284,0.76948 -2.39284,0.76948 l -1.44133,2.645056 -2.10906,-1.553776 -2.24736,2.841961 v 0 c -0.85112,0.412358 -1.62341,-3.110577 -2.43426,-4.708251 v 0 l -1.283,-2.00802 -4.00562,-0.4375 -2.84105,-1.67027 -1.94244,-1.25274 z"
       id="path773"
       sodipodi:nodetypes="ccccsssscccccccccccc" /><path
       style="opacity:0.55;fill:#808080;fill-rule:evenodd;stroke:none;stroke-width:0.264583px;stroke-linecap:butt;stroke-linejoin:miter;stroke-opacity:1;filter:url(#filter1637)"
       d="m -272.14431,-95.843029 2.09554,-3.318411 2.10906,1.553776 1.44133,-2.645056 2.39284,-0.76948 -0.58052,-1.23125 -2.99925,-0.9201 -3.76698,-1.87604 -2.19355,-2.63398 1.9225,-1.20617 -0.15274,-2.55347 v 0 l 3.81451,-1.31724 2.83303,-0.31678 1.9853,3.14039 2.50989,-2.63162 v 0 c 0,0 2.1614,1.57659 2.40595,2.39508 0.24455,0.8185 0.5169,-0.88052 1.80319,2.10771 l 1.28629,2.98823 c 0,0 5.24497,0.71619 5.68093,0.77985 0.43595,0.0637 3.21853,0.51404 3.21853,0.51404 l 0.3216,-1.51207 0.90773,-1.78067 1.64932,-3.43891 v 0 l 3.92005,0.62581 0.43649,3.6669 2.52253,1.7219 v 0 c 0,0 0.99169,3.15389 1.16309,3.69672 0.17139,0.54283 -0.19638,0.31848 0.125,2.130935 0.32138,1.812457 -1.037,2.596293 -1.3097,2.596293 -0.2727,0 -3.52328,2.089862 -3.72052,3.283355 -0.19724,1.19349 -0.96968,3.496733 -1.70083,3.520884 -0.73115,0.02416 -2.84375,-0.210547 -3.35942,-0.02529 -0.51568,0.185259 -3.10896,0.758899 -3.10896,0.758899 l -0.71295,-1.530501 c 0,0 -2.08324,-0.815755 -2.27476,-0.407879 -0.19152,0.407879 -1.30526,1.705498 -1.77461,2.137911 -0.46934,0.432414 -1.35231,1.799473 -2.04654,2.685237 -0.63057,0.804542 -2.29094,1.433642 -1.92421,2.387801 0.51511,1.340229 -1.55994,2.338695 -1.55994,2.338695 l 0.0407,-4.157099 -1.48027,-2.673922 2.43394,-2.310744 -3.45423,-1.398214 c 0,0 -1.10153,-1.951024 -1.63434,-2.025055 -0.53281,-0.07403 -4.41204,-1.578168 -4.41204,-1.578168 z"
       id="path775"
       sodipodi:nodetypes="cccccccccccccccccsscccccccccccssssssccssascccccscc" /><path
       style="opacity:0.55;fill:#447821;fill-rule:evenodd;stroke:none;stroke-width:0.264583px;stroke-linecap:butt;stroke-linejoin:miter;stroke-opacity:1;filter:url(#filter1641)"
       d="m -258.06498,-80.936188 3.58682,2.70884 4.04697,-1.316812 3.38397,-1.018379 3.73628,-3.18734 c 0,0 2.31437,-0.956313 1.67877,-1.100132 -0.63561,-0.14382 -0.87652,-0.602171 -0.87652,-0.602171 l 2.49089,-1.391407 -2.0059,-2.428816 v 0 l -3.35942,-0.02529 -3.10896,0.758899 -0.71295,-1.530501 -2.27476,-0.407879 -1.77443,1.49731 c 0,0 -0.9701,0.0314 -2.11046,2.868192 -1.14036,2.836791 -2.7003,5.175485 -2.7003,5.175485 v 0"
       id="path777"
       sodipodi:nodetypes="cccccscccccccccscc" /><path
       style="font-variation-settings:normal;opacity:0.55;vector-effect:none;fill:#afdde9;fill-opacity:1;fill-rule:evenodd;stroke:none;stroke-width:0.264583px;stroke-linecap:butt;stroke-linejoin:miter;stroke-miterlimit:4;stroke-dasharray:none;stroke-dashoffset:0;stroke-opacity:1;-inkscape-stroke:none;filter:url(#filter1645);stop-color:#000000;stop-opacity:1"
       d="m -214.39791,-92.147363 -1.88477,1.531176 0.64307,2.077395 c 0,0 -0.72952,0.568973 -1.33228,1.403828 -0.60277,0.834856 1.3622,1.822146 1.93094,1.897539 0.56874,0.0754 1.52664,-0.05592 1.52664,0.888124 0,0.944039 1.27746,2.179998 1.27746,2.983378 0,0.803384 1.39046,1.389947 2.49343,2.336726 1.10297,0.946783 2.74667,2.059229 2.74667,2.059229 l -0.37878,-2.330993 0.0693,-3.275182 c 0,0 1.1554,-0.202162 1.1554,-0.202162 l 1.60902,1.69917 -0.12453,-3.719769 -0.59227,-2.783832 -0.64345,-0.980396 -2.24757,-1.785016 c 0,0 0.44139,-0.971227 0,0 -0.44139,0.971224 0.68284,1.798097 -0.44139,0.971224 -1.12423,-0.826876 -2.72521,-1.909056 -2.72521,-1.909056 v 0 l -1.3569,1.899449 -1.97231,-1.149215 z"
       id="path779" /><path
       style="font-variation-settings:normal;opacity:0.55;vector-effect:none;fill:#afdde9;fill-opacity:1;fill-rule:evenodd;stroke:none;stroke-width:0.264583px;stroke-linecap:butt;stroke-linejoin:miter;stroke-miterlimit:4;stroke-dasharray:none;stroke-dashoffset:0;stroke-opacity:1;-inkscape-stroke:none;filter:url(#filter1649);stop-color:#000000;stop-opacity:1"
       d="m -258.78509,-80.927532 4.30693,2.700182 7.43094,-2.335189 c 0,0 1.76316,1.801347 2.1095,3.223358 0.34635,1.422013 1.05765,4.013636 1.05765,4.013636 l 3.35882,-0.557948 c 0,0 0.7065,1.781212 0.7065,2.829132 0,1.047916 1.17873,0.191643 1.10458,2.182402 -0.0742,1.990759 -0.57293,3.517966 -1.10458,3.615968 -0.53165,0.098 -3.31517,0.172267 -3.31517,0.172267 0,0 -0.49877,-2.067314 -0.95734,-1.740828 -0.45857,0.326485 -2.79828,1.414766 -2.79828,1.825974 0,0.41121 0.79401,2.578351 0.79401,2.578351 0,0 -1.42705,1.389735 -1.66366,1.899539 -0.23661,0.509807 -0.31101,1.45024 -0.21224,2.398758 0.0988,0.948518 -1.30445,0.788535 -1.65977,0.619029 -0.35532,-0.169502 -2.88021,-1.445884 -2.88021,-1.445884 l -0.77437,1.116251 c 0,0 -2.50779,0.864819 -3.20583,1.325406 -0.69803,0.460587 -1.42445,0.436007 -1.42445,0.436007 l 0.92045,-1.539409 1.40147,-2.394292 -1.83578,-1.78662 -1.46923,-2.572618 -0.44414,-1.687523 1.99465,-1.685893 -0.59516,-3.116543 c 0,0 1.0343,-2.014006 1.27245,-2.521741 0.23816,-0.507733 -0.27159,-1.126752 -0.27159,-1.126752 l -1.52572,-1.035706 -1.09052,-2.544196 z"
       id="path800" /><path
       style="opacity:0.55;fill:#87aade;fill-rule:evenodd;stroke:none;stroke-width:0.264583px;stroke-linecap:butt;stroke-linejoin:miter;stroke-opacity:1;filter:url(#filter1653)"
       d="m -253.28178,-57.832534 c 0,0 -2.46952,3.441525 -2.3722,4.005857 0.0973,0.56433 0.91744,1.897409 1.17582,1.842699 0.25837,-0.05471 3.17438,-1.668328 3.17438,-1.668328 l 2.76057,-2.286325 1.65098,-0.568497 3.1117,3.679179 -1.69161,0.843876 c 0,0 -2.46934,0.690935 -2.64092,1.219483 -0.17159,0.528547 3.33927,1.961586 3.33927,1.961586 0,0 -1.3226,1.956708 -0.79131,2.496045 0.53129,0.53934 4.40099,-1.640745 4.40099,-1.640745 0,0 0.98794,0.245663 0.76621,0.851858 -0.22172,0.606192 -0.73807,2.025462 -0.73807,2.025462 l 2.56148,0.717849 c 0,0 0.14813,-2.244127 0.9317,-1.159235 0.78357,1.08489 2.85355,1.819609 3.07255,2.183397 0.219,0.363787 1.64883,-1.412425 1.64883,-1.412425 0,0 3.35051,-0.289396 3.3761,0.598474 0.0256,0.887871 2.46024,1.210996 3.0897,1.280743 0.62947,0.06974 2.07976,-0.20066 2.07976,-0.20066 l 5.55851,-4.690994 3.60125,-3.842385 4.84177,-0.807881 2.81204,-0.323787 2.60249,-6.058897 -1.90241,-1.76656 v 0 l -0.84833,-2.472602 -1.30851,-0.912948 v 0 c 0,0 -0.0729,-2.726856 -0.0729,-2.726856 0,0 -1.2788,-0.908095 -1.2788,-0.908095 0,0 0.13755,-3.91414 0.13755,-3.91414 0,0 -1.12433,-3.498758 -1.12433,-3.498758 v 0 l 1.09807,0.104826 3.13525,0.223916 c 0,0 0.12742,-2.312566 0.12742,-2.312566 l -2.74667,-2.059231 c 0,0 -2.49343,-2.336726 -2.49343,-2.336726 0,0 -1.27746,-2.983378 -1.27746,-2.983378 0,0 1.52664,0.888124 0,0 -1.52664,-0.888125 -3.45758,-2.785663 -3.45758,-2.785663 v 0 l 1.33228,-1.403826 -0.64307,-2.077395 1.88477,-1.531178 -3.60559,0.547566 -1.56689,-0.577694 -1.7155,-2.020136 -0.73059,1.731285 -2.51285,1.850157 c 0,0 1.93822,2.077395 2.51285,2.077395 0.57463,0 0.57463,0.616058 0.57463,0.616058 v 2.787089 2.394249 c 0,0 -1.18462,0.778161 -1.5653,0.778161 -0.38069,0 -3.44846,-1.267405 -3.44846,-1.267405 l 1.81459,-1.346819 -0.58048,-2.574536 -1.69642,-1.386797 -2.07308,-2.077395 c 0,0 -1.31872,-1.718302 -1.68328,-2.1771 -0.36456,-0.458798 -2.24713,-2.277406 -2.24713,-2.277406 l -2.19057,-1.005949 h -1.49037 l -3.2124,1.879015 c 0,0 -0.91902,1.878801 -1.09055,2.730119 -0.17153,0.851321 -1.1184,2.195103 -1.1184,2.195103 l 2.0059,2.428814 -2.49089,1.391406 0.87652,0.602174 -1.67877,1.100132 -1.72524,1.471768 -2.01104,1.715572 2.1095,3.223358 1.05765,4.013634 3.35882,-0.557948 0.7065,2.829134 v 0 c 0,0 1.35105,0.169097 1.10458,2.182399 -0.24647,2.013305 -1.10458,3.615971 -1.10458,3.615971 l -3.31517,0.172265 -0.95734,-1.740826 v 0 l -2.79828,1.825971 v 0 l 0.79401,2.578352 c 0,0 0,0 0,0 l -1.66366,1.899539 -0.21224,2.39876 v 0 l -1.65977,0.619027 -2.88021,-1.445885 z"
       id="path812" /><path
       style="font-variation-settings:normal;opacity:0.55;vector-effect:none;fill:#ffff00;fill-opacity:1;fill-rule:evenodd;stroke:none;stroke-width:0.264583px;stroke-linecap:butt;stroke-linejoin:miter;stroke-miterlimit:4;stroke-dasharray:none;stroke-dashoffset:0;stroke-opacity:1;-inkscape-stroke:none;filter:url(#filter1557);stop-color:#000000;stop-opacity:1"
       d="m -234.57024,-43.328375 3.0002,4.306392 c 0,0 2.94624,-1.165764 3.44963,-1.560083 0.50339,-0.39432 3.74456,-2.480178 3.74456,-2.480178 l -2.07976,0.20066 -3.0897,-1.280742 v 0 l -3.3761,-0.598474 z"
       id="path814" /><path
       style="font-variation-settings:normal;opacity:0.55;vector-effect:none;fill:#808080;fill-opacity:1;fill-rule:evenodd;stroke:none;stroke-width:0.264583px;stroke-linecap:butt;stroke-linejoin:miter;stroke-miterlimit:4;stroke-dasharray:none;stroke-dashoffset:0;stroke-opacity:1;-inkscape-stroke:none;filter:url(#filter1661);stop-color:#000000;stop-opacity:1"
       d="m -258.46466,-75.538221 -0.4123,2.481672 c 0,0 -0.80496,4.476154 -0.82954,4.811561 -0.0246,0.335404 1.93133,1.825928 0.53556,2.833067 -1.39576,1.007137 -1.4695,3.857525 -1.4695,3.857525 0,0 -0.0455,1.438153 0.12645,2.519592 0.17193,1.08144 -0.18878,1.861392 -0.56702,1.861392 -0.37825,0 -1.49507,-0.532443 -2.18965,0.666284 -0.69457,1.198729 -0.69457,1.551652 -0.69457,2.424406 0,0.872752 2.23202,1.112263 1.78583,2.939487 -0.4462,1.827223 -2.19693,2.763575 -1.87527,4.043984 0.32167,1.280408 0.81686,2.081337 1.58141,3.471939 0.76455,1.390602 0.75613,1.832091 1.30282,2.236626 0.54669,0.404535 4.20418,-1.326555 4.20418,-1.326555 0,0 -1.01024,-1.208529 -1.01024,-1.684215 0,-0.475687 -2.44713,-2.295007 -1.62344,-2.419086 0.8237,-0.124079 1.62344,-0.670872 1.62344,-0.670872 0,0 0.7322,-2.340242 -0.0932,-2.89284 -0.82543,-0.552599 -0.70652,-1.941777 -0.70652,-1.941777 l -0.91865,-2.64762 1.78283,-1.097473 0.92045,-1.539406 1.40147,-2.394294 -3.74915,-6.046761 1.99465,-1.685894 -0.59516,-3.116543 1.27245,-2.521741 z"
       id="path835"
       sodipodi:nodetypes="ccsscsssssssscsscscccccccccc" /><path
       style="font-variation-settings:normal;opacity:0.55;vector-effect:none;fill:#ffdd55;fill-opacity:1;fill-rule:evenodd;stroke:none;stroke-width:0.264583px;stroke-linecap:butt;stroke-linejoin:miter;stroke-miterlimit:4;stroke-dasharray:none;stroke-dashoffset:0;stroke-opacity:1;-inkscape-stroke:none;filter:url(#filter1665);stop-color:#000000;stop-opacity:1"
       d="m -254.47816,-51.983981 0.77975,2.205585 c 0,0 1.01315,-0.133537 1.11688,-0.520282 0.10372,-0.386744 0.15677,-2.104823 0.15677,-2.104823 0,0 0.20218,-0.744377 -0.0243,-0.621755 -0.22647,0.122618 -2.02912,1.041275 -2.02912,1.041275 z"
       id="path856" /><path
       style="font-variation-settings:normal;opacity:0.55;vector-effect:none;fill:#ffdd55;fill-opacity:1;fill-rule:evenodd;stroke:none;stroke-width:0.264583px;stroke-linecap:butt;stroke-linejoin:miter;stroke-miterlimit:4;stroke-dasharray:none;stroke-dashoffset:0;stroke-opacity:1;-inkscape-stroke:none;filter:url(#filter1669);stop-color:#000000;stop-opacity:1"
       d="m -259.69489,-52.806562 0.79974,-1.117066 -0.79974,-1.050025 v 0 2.167091"
       id="path858" /><path
       style="opacity:0.55;fill:#ff00ff;fill-rule:evenodd;stroke:none;stroke-width:0.264583px;stroke-linecap:butt;stroke-linejoin:miter;stroke-opacity:1;filter:url(#filter1673)"
       d="m -259.69489,-54.973656 1.78283,-1.09747 1.42445,-0.436005 3.20583,-1.325403 -2.3722,4.005855 v 0 l 1.95557,4.048281 c 0,0 1.11688,-0.520282 1.11688,-0.520282 l 0.15677,-2.104821 c 0,0 -1.16958,0.0053 -0.0243,-0.621755 1.14528,-0.627052 3.09411,-1.981904 3.09411,-1.981904 l 2.46272,-1.499971 1.57264,1.859444 1.53906,1.819736 c 0,0 -2.63199,0.789045 -3.48226,1.426202 -0.85027,0.637156 -0.30662,-0.494202 -0.85027,0.637156 -0.54365,1.131361 -0.62963,2.83323 -0.59932,3.21396 0.0303,0.380727 -0.42231,1.478124 -0.42231,2.073386 0,0.59526 0,1.881092 0,2.320549 0,0.439457 -2.57738,0.892628 -3.42408,0.892628 -0.84671,0 -1.877,-0.657982 -2.25664,-0.657982 -0.37965,0 -2.15085,0.204809 -2.15085,0.204809 0,0 -1.92889,-2.164747 -1.92889,-2.164747 0,0 0.3838,1.137811 0,0 -0.38379,-1.137809 -1.62344,-2.419085 -1.62344,-2.419085 l 1.62344,-0.670873 0.82543,-2.412309 v 0 l -1.62517,-2.422305 0.79974,-1.117069 z"
       id="path889" /><path
       style="opacity:0.55;fill:#ff9955;fill-rule:evenodd;stroke:none;stroke-width:0.264583px;stroke-linecap:butt;stroke-linejoin:miter;stroke-opacity:1;filter:url(#filter1677)"
       d="m -231.57004,-39.021985 c 0,0 -2.09903,4.38944 -2.02935,4.628666 0.0697,0.239225 -0.10323,0.89418 -0.19042,1.464577 -0.0872,0.570394 0.006,2.819458 0.26646,3.442041 0.26019,0.622586 0.0928,0.432901 0.52791,1.319554 0.43516,0.88665 2.50335,2.590966 2.98653,2.943979 0.48317,0.353012 1.45023,2.260441 1.46761,2.972773 0.0174,0.71233 0.0173,1.529745 -1.6e-4,2.085708 -0.0174,0.555961 0.10379,1.534721 -0.98428,2.009349 -1.08806,0.474626 -2.55182,0.702792 -2.88156,1.032531 -0.32974,0.329737 -1.97515,1.204235 -2.33991,1.238996 -0.36477,0.03476 -0.62644,-0.0021 -1.09043,0.174342 -0.46399,0.176586 -0.40178,-1.381905 -0.12404,-1.486159 0.27773,-0.104256 1.77621,-1.13316 1.77621,-1.13316 l -2.50201,-0.260964 c 0,0 -1.88701,-1.397553 -1.88701,-1.519481 0,-0.121928 -1.07557,-0.681582 -1.57744,-0.508153 -0.50187,0.173431 -3.81002,0.192148 -3.81002,0.192148 0,0 -1.50285,-1.165579 -1.84783,-1.044969 -0.34498,0.12061 -2.0051,1.007732 -2.03764,1.496105 -0.0325,0.488376 0.39188,2.286167 0.27018,2.995517 -0.12169,0.709351 -0.80011,1.152694 -1.17878,1.466416 -0.37867,0.313725 -3.12513,0.296968 -3.88729,0.279641 -0.76217,-0.01733 -3.65168,-0.388615 -3.65168,-0.388615 0,0 0.15008,-0.628634 0.50468,-1.568429 0.35461,-0.939797 0.35461,-1.735439 0.35461,-1.735439 0,0 -2.83219,-0.584496 -3.84325,-0.551204 -1.01106,0.0333 -4.94384,-0.257188 -4.94384,-0.257188 0,0 -0.32256,-0.533021 -1.44077,-0.715528 -1.11821,-0.18251 -2.73876,-0.351433 -2.73876,-0.351433 0,0 -3.47766,1.669908 -3.00635,1.079077 0.47132,-0.59083 2.1916,-4.815956 2.1916,-4.815956 l 0.13876,-3.952084 c 0,0 2.3647,-0.181487 2.46383,-1.791497 0.0145,-0.235751 3.06313,-2.933768 3.59877,-3.387375 0.53564,-0.45361 2.64311,-4.318508 2.67184,-4.318508 0.0287,0 -0.85657,-4.460112 -0.85657,-4.460112 l 4.23418,-0.270424 4.40749,0.45317 3.42408,-0.892627 c 0,0 0.22026,-1.16359 0,-2.32055 -0.22026,-1.156959 1.02163,-5.287343 1.02163,-5.287343 l 3.33927,1.961586 -0.79131,2.496045 4.40099,-1.640745 c 0,0 1.50428,-1.173604 0.76621,0.851858 -0.73807,2.025462 0.11062,1.961703 0.34688,2.329519 0.23627,0.367816 1.47653,0.413792 1.47653,0.413792 l 0.9317,-1.159234 3.07255,2.183394 c 0,0 1.62649,2.334617 1.84521,2.648564 z"
       id="path891"
       sodipodi:nodetypes="cssccsscssscsccsscscssscscscscsccsssccccsccccsscccsc" /><path
       style="opacity:0.55;fill:#44aa00;fill-rule:evenodd;stroke:none;stroke-width:0.264583px;stroke-linecap:butt;stroke-linejoin:miter;stroke-opacity:1;filter:url(#filter1681)"
       d="m -258.73071,-36.557545 c 0,0 0.31999,2.421972 0.54342,2.389497 0.22344,-0.03247 2.00982,-1.389637 2.00982,-1.389637 l 2.77199,-1.543825 1.19742,-1.257459 -1.93445,0.05199 -1.29319,1.040664 -2.33431,0.390073 z"
       id="path893" /><path
       style="opacity:0.55;fill:#fff6d5;fill-rule:evenodd;stroke:none;stroke-width:0.264583px;stroke-linecap:butt;stroke-linejoin:miter;stroke-opacity:1;filter:url(#filter1685)"
       d="m -231.70453,-16.931565 -2.1282,0.139442 -1.20621,0.756179 -2.22413,0.657159 -0.12404,-1.48616 1.77621,-1.13316 -2.50201,-0.260964 -1.88701,-1.51948 c 0,0 -0.0825,-1.630337 -0.50897,-1.610281 -0.42652,0.02005 -3.45306,0.963589 -3.45306,0.963589 v 0 l -1.84783,-1.044969 -2.03764,1.496105 0.27018,2.995517 -1.17878,1.466416 -3.88729,0.279641 c 0,0 -2.1796,0.140166 -2.24413,0.140166 -0.0645,0 -1.62698,1.578835 -1.87896,1.715511 -0.25198,0.136673 -2.15682,0.469347 -2.60976,1.130715 -0.45294,0.661368 -0.89726,2.6648489 -0.74171,3.2360076 0.15556,0.5711613 1.24168,1.2302013 1.24168,2.4697187 v 2.686767 c 0,1.5561759 -0.5175,-0.7301151 0,3.3066169 0.51749,4.036732 -0.65063,5.1306944 -0.56364,5.3573814 0.087,0.2266897 4.05611,2.4133569 4.05611,3.3876162 0,0.9742567 -0.77409,0.2117276 1.00221,2.4288322 1.7763,2.217108 1.7489,1.752066 2.49025,2.656274 0.74136,0.904208 0.99653,0.524862 1.80792,2.6079 0.8114,2.083041 1.05472,4.307398 1.05472,4.307398 0,0 1.75309,3.739912 1.82261,3.965858 0.0695,0.225944 0.29978,-0.248068 1.07779,1.77291 0.77802,2.020977 0.91667,2.270088 1.19491,2.861212 0.27824,0.591121 0.58689,1.072568 0.93945,2.554801 0.35256,1.482232 -0.0481,1.504079 1.00861,1.373039 1.05675,-0.131038 8.58764,-1.177377 8.58764,-1.177377 l 2.87984,-1.227651 2.90191,-1.384499 -1.68334,-3.025182 1.81395,-1.764866 2.02208,1.088951 -1.9508,-2.51994 c 0,0 0.175,-3.831018 0.40479,-4.052115 0.2298,-0.221096 1.04547,-2.330058 1.4643,-2.740207 0.41884,-0.410152 0.78206,-2.67929 0.78206,-2.67929 0,0 -1.3821,-1.49684 -1.3821,-2.145903 0,-0.649062 0.60004,-4.9712054 0.60004,-5.2650067 0,-0.2937986 0.92094,-5.16538891 0.92094,-5.16538891 l -1.52098,-1.00747782 -1.43713,1.28098552 c 0,0 0.61372,-6.38737989 0.61372,-7.00073429 0,-0.6133545 -0.63888,-2.6771706 -0.96991,-3.1121037 -0.33104,-0.43493 -1.63655,-3.1084701 -1.63655,-3.9027231 0,-0.794255 -1.12974,-3.85723 -1.12974,-3.85723 z"
       id="path895"
       sodipodi:nodetypes="ccccccccscccccccsssssssssssscssssscccccccsscsscccsssc" /><path
       style="opacity:0.55;fill:#668000;fill-rule:evenodd;stroke:none;stroke-width:0.264583px;stroke-linecap:butt;stroke-linejoin:miter;stroke-opacity:1;filter:url(#filter1689)"
       d="m -253.83526,-15.331104 -2.45973,-0.290041 0.85929,-3.303868 -6.60322,-0.661718 -2.18387,-0.146674 c 0,0 -2.706,-1.182691 -2.83829,-1.53838 -0.13229,-0.35569 -2.13071,-0.402323 -2.13071,-0.402323 l -3.00635,1.079076 c 0,0 0.97911,3.726377 0.69489,4.029984 -0.28423,0.303606 -5.06684,3.646548 -5.37338,4.374666 -0.30654,0.728114 -4.53519,4.3435797 -5.33738,5.0585844 -0.8022,0.7150073 -2.27612,1.3624189 -3.29537,2.8529808 -1.01925,1.490562 -2.8989,3.30089141 -3.05485,3.81784751 -0.15596,0.51695353 -1.07666,1.11922339 -0.93716,2.14554479 0.13949,1.0263214 1.21445,3.8114049 1.91292,5.7419133 0.69847,1.9305111 1.11902,5.6060582 1.10164,6.4343572 -0.0174,0.828296 -2.25033,-4.8636476 0.074,2.027862 2.32435,6.891512 2.94522,9.604597 2.94522,10.048433 0,0.443836 2.65977,5.943248 2.53745,6.97186 -0.12232,1.028616 -0.35978,5.15696 -0.27248,5.656049 0.0873,0.499088 0.24517,0.727522 0.18746,2.53284 -0.0577,1.805318 -1.88094,6.606603 -1.88094,6.606603 0,0 -0.23211,5.590329 -0.17519,6.290974 0.0569,0.700649 -0.52659,0.704935 -0.33206,2.114161 0.19453,1.409224 1.77194,2.528888 1.91219,3.504192 0.14025,0.975307 -0.0316,2.528208 0.2156,3.914495 0.24715,1.386287 -0.0271,5.77537 0.11849,6.953721 0.14563,1.178351 5.66906,2.164598 6.73406,2.179052 1.06501,0.01445 3.44194,-0.783444 3.44194,-0.783444 l 0.27718,-1.380326 1.8552,-1.297146 0.76265,-2.708913 -1.89079,0.740024 -0.12498,0.986949 -0.86426,0.44474 -1.12404,-0.567033 0.63507,-1.006068 -1.84388,0.239144 -0.72605,1.633302 -0.86371,-1.094566 -2.45993,-2.666566 -0.22402,-0.963673 1.08513,-1.61058 -0.14539,-1.071485 c 0,0 1.07398,-1.016376 0.30842,-1.742462 -0.76556,-0.726085 -1.1227,-2.117058 -1.1227,-2.117058 l 0.94664,-1.616747 -1.44177,-1.137698 0.17227,-0.790059 1.29261,-0.508582 2.5975,-1.078497 0.87884,-0.195964 1.07531,0.499232 0.61678,-1.316582 1.53707,-1.54934 v 0 l 1.17305,-1.156983 1.19988,0.848326 2.17869,-1.020278 3.74657,-1.419485 c 0,0 2.03363,-0.956111 2.98434,-1.374899 0.9507,-0.418785 5.26367,-2.236081 5.26367,-2.236081 l 5.01025,-0.872686 -1.6407,-0.724434 1.33764,-1.244188 0.11492,-1.858488 3.48589,-0.16392 0.0828,0.601323 2.91591,-1.870186 v 0 l -0.55608,-2.016479 -2.55334,-0.209127 -1.16197,-0.331295 0.0911,-1.672416 3.11405,-0.554204 -1.00861,-1.373039 -2.13436,-5.416013 -1.07779,-1.772909 -1.82261,-3.965858 -0.66433,-3.164049 c 0,0 -0.10497,-2.632237 -0.69222,-2.737969 -0.58725,-0.105733 -2.75428,-2.225498 -2.75428,-2.225498 l -1.24206,-1.444056 -1.00221,-2.4288328 -0.54439,-0.9398423 -2.17589,-1.7461997 -0.49669,-3.8610752 -0.50232,-4.3588436 0.22682,-3.8324208 -1.24168,-2.4697187 0.74171,-3.2360079 2.60976,-1.130715 1.87896,-1.715511 z"
       id="path897"
       sodipodi:nodetypes="cccccsccssssssssssssscssssssccccccccccccccccscccccccccccccccscccccccccccccccccccsccccccccccccc" /></g><g
     inkscape:groupmode="layer"
     id="layer2"
     inkscape:label="base1"
     style="display:none"><image
       width="198.61377"
       height="274.83875"
       preserveAspectRatio="none"
       style="display:inline;opacity:0.66;fill:#e9afdd;image-rendering:optimizeQuality"
       xlink:href="chimbutane.png"
       id="image346"
       x="-320.80453"
       y="-182.08777"
       transform="matrix(0.99838957,0.05672968,-0.05201889,0.99864611,317.71945,189.72484)" /><text
       xml:space="preserve"
       style="font-style:normal;font-variant:normal;font-weight:normal;font-stretch:normal;font-size:7.05556px;line-height:125%;font-family:Arimo;-inkscape-font-specification:Arimo;font-variant-ligatures:none;letter-spacing:0px;word-spacing:0px;writing-mode:lr-tb;display:inline;fill:#000000;stroke:none;stroke-width:0.264583px;stroke-linecap:butt;stroke-linejoin:miter;stroke-opacity:1"
       x="41.657993"
       y="72.052536"
       id="text1837-6"><tspan
         sodipodi:role="line"
         id="tspan1835-2"
         style="font-style:normal;font-variant:normal;font-weight:normal;font-stretch:normal;font-family:Arimo;-inkscape-font-specification:Arimo;fill:#000000;stroke:none;stroke-width:0.264583px"
         x="41.657993"
         y="72.052536">Cinyanja</tspan></text></g><g
     inkscape:groupmode="layer"
     id="layer4"
     inkscape:label="text"
     transform="translate(-5.8478665,3.9949309)"><text
       xml:space="preserve"
       style="font-style:normal;font-variant:normal;font-weight:normal;font-stretch:normal;font-size:7.05556px;line-height:125%;font-family:Arimo;-inkscape-font-specification:Arimo;font-variant-ligatures:none;letter-spacing:0px;word-spacing:0px;writing-mode:lr-tb;display:inline;fill:#000000;stroke:none;stroke-width:0.264583px;stroke-linecap:butt;stroke-linejoin:miter;stroke-opacity:1"
       x="135.29271"
       y="95.595062"
       id="text1747"><tspan
         sodipodi:role="line"
         id="tspan1745"
         style="font-style:normal;font-variant:normal;font-weight:normal;font-stretch:normal;font-family:Arimo;-inkscape-font-specification:Arimo;fill:#000000;stroke:none;stroke-width:0.264583px"
         x="135.29271"
         y="95.595062">Cibalke</tspan></text><text
       xml:space="preserve"
       style="font-style:normal;font-variant:normal;font-weight:normal;font-stretch:normal;font-size:7.05556px;line-height:125%;font-family:Arimo;-inkscape-font-specification:Arimo;font-variant-ligatures:none;letter-spacing:0px;word-spacing:0px;writing-mode:lr-tb;display:inline;fill:#000000;stroke:none;stroke-width:0.264583px;stroke-linecap:butt;stroke-linejoin:miter;stroke-opacity:1"
       x="63.740055"
       y="103.45232"
       id="text1751"><tspan
         sodipodi:role="line"
         id="tspan1749"
         style="font-style:normal;font-variant:normal;font-weight:normal;font-stretch:normal;font-family:Arimo;-inkscape-font-specification:Arimo;fill:#000000;stroke:none;stroke-width:0.264583px"
         x="63.740055"
         y="103.45232">Cicopi</tspan></text><text
       xml:space="preserve"
       style="font-style:normal;font-variant:normal;font-weight:normal;font-stretch:normal;font-size:7.05556px;line-height:125%;font-family:Arimo;-inkscape-font-specification:Arimo;font-variant-ligatures:none;letter-spacing:0px;word-spacing:0px;writing-mode:lr-tb;display:inline;fill:#000000;stroke:none;stroke-width:0.264583px;stroke-linecap:butt;stroke-linejoin:miter;stroke-opacity:1"
       x="14.615207"
       y="94.123764"
       id="text1805"><tspan
         sodipodi:role="line"
         id="tspan1803"
         style="font-style:normal;font-variant:normal;font-weight:normal;font-stretch:normal;font-family:Arimo;-inkscape-font-specification:Arimo;fill:#000000;stroke:none;stroke-width:0.264583px"
         x="14.615207"
         y="94.123764">Cimanyika</tspan></text><text
       xml:space="preserve"
       style="font-style:normal;font-variant:normal;font-weight:normal;font-stretch:normal;font-size:7.05556px;line-height:125%;font-family:Arimo;-inkscape-font-specification:Arimo;font-variant-ligatures:none;letter-spacing:0px;word-spacing:0px;writing-mode:lr-tb;display:inline;fill:#000000;stroke:none;stroke-width:0.264583px;stroke-linecap:butt;stroke-linejoin:miter;stroke-opacity:1"
       x="59.559746"
       y="158.41475"
       id="text1809"><tspan
         sodipodi:role="line"
         id="tspan1807"
         style="font-style:normal;font-variant:normal;font-weight:normal;font-stretch:normal;font-family:Arimo;-inkscape-font-specification:Arimo;fill:#000000;stroke:none;stroke-width:0.264583px"
         x="59.559746"
         y="158.41475">Cindawu</tspan></text><text
       xml:space="preserve"
       style="font-style:normal;font-variant:normal;font-weight:normal;font-stretch:normal;font-size:7.05556px;line-height:125%;font-family:Arimo;-inkscape-font-specification:Arimo;font-variant-ligatures:none;letter-spacing:0px;word-spacing:0px;writing-mode:lr-tb;display:inline;fill:#000000;stroke:none;stroke-width:0.264583px;stroke-linecap:butt;stroke-linejoin:miter;stroke-opacity:1"
       x="57.50341"
       y="88.280815"
       id="text1813"><tspan
         sodipodi:role="line"
         id="tspan1811"
         style="font-style:normal;font-variant:normal;font-weight:normal;font-stretch:normal;font-family:Arimo;-inkscape-font-specification:Arimo;fill:#000000;stroke:none;stroke-width:0.264583px"
         x="57.50341"
         y="88.280815">Cinyungwe</tspan></text><text
       xml:space="preserve"
       style="font-style:normal;font-variant:normal;font-weight:normal;font-stretch:normal;font-size:7.05556px;line-height:125%;font-family:Arimo;-inkscape-font-specification:Arimo;font-variant-ligatures:none;letter-spacing:0px;word-spacing:0px;writing-mode:lr-tb;display:inline;fill:#000000;stroke:none;stroke-width:0.264583px;stroke-linecap:butt;stroke-linejoin:miter;stroke-opacity:1"
       x="85.627411"
       y="127.91842"
       id="text1817"><tspan
         sodipodi:role="line"
         id="tspan1815"
         style="font-style:normal;font-variant:normal;font-weight:normal;font-stretch:normal;font-family:Arimo;-inkscape-font-specification:Arimo;fill:#000000;stroke:none;stroke-width:0.264583px"
         x="85.627411"
         y="127.91842">Cisena</tspan></text><text
       xml:space="preserve"
       style="font-style:normal;font-variant:normal;font-weight:normal;font-stretch:normal;font-size:7.05556px;line-height:125%;font-family:Arimo;-inkscape-font-specification:Arimo;font-variant-ligatures:none;letter-spacing:0px;word-spacing:0px;writing-mode:lr-tb;display:inline;fill:#000000;stroke:none;stroke-width:0.264583px;stroke-linecap:butt;stroke-linejoin:miter;stroke-opacity:1"
       x="68.492531"
       y="190.66663"
       id="text1821"><tspan
         sodipodi:role="line"
         id="tspan1819"
         style="font-style:normal;font-variant:normal;font-weight:normal;font-stretch:normal;font-family:Arimo;-inkscape-font-specification:Arimo;fill:#000000;stroke:none;stroke-width:0.264583px"
         x="68.492531"
         y="190.66663">Cithswa</tspan></text><text
       xml:space="preserve"
       style="font-style:normal;font-variant:normal;font-weight:normal;font-stretch:normal;font-size:7.05556px;line-height:125%;font-family:Arimo;-inkscape-font-specification:Arimo;font-variant-ligatures:none;letter-spacing:0px;word-spacing:0px;writing-mode:lr-tb;display:inline;fill:#000000;stroke:none;stroke-width:0.264583px;stroke-linecap:butt;stroke-linejoin:miter;stroke-opacity:1"
       x="59.60323"
       y="137.33864"
       id="text1825"><tspan
         sodipodi:role="line"
         id="tspan1823"
         style="font-style:normal;font-variant:normal;font-weight:normal;font-stretch:normal;font-family:Arimo;-inkscape-font-specification:Arimo;fill:#000000;stroke:none;stroke-width:0.264583px"
         x="59.60323"
         y="137.33864">Ciwutee</tspan></text><text
       xml:space="preserve"
       style="font-style:normal;font-variant:normal;font-weight:normal;font-stretch:normal;font-size:7.05556px;line-height:125%;font-family:Arimo;-inkscape-font-specification:Arimo;font-variant-ligatures:none;letter-spacing:0px;word-spacing:0px;writing-mode:lr-tb;display:inline;fill:#000000;stroke:none;stroke-width:0.264583px;stroke-linecap:butt;stroke-linejoin:miter;stroke-opacity:1"
       x="105.53102"
       y="35.660797"
       id="text1829"><tspan
         sodipodi:role="line"
         id="tspan1827"
         style="font-style:normal;font-variant:normal;font-weight:normal;font-stretch:normal;font-family:Arimo;-inkscape-font-specification:Arimo;fill:#000000;stroke:none;stroke-width:0.264583px"
         x="105.53102"
         y="35.660797">Ciyaawo</tspan></text><text
       xml:space="preserve"
       style="font-style:normal;font-variant:normal;font-weight:normal;font-stretch:normal;font-size:7.05556px;line-height:125%;font-family:Arimo;-inkscape-font-specification:Arimo;font-variant-ligatures:none;letter-spacing:0px;word-spacing:0px;writing-mode:lr-tb;display:inline;fill:#000000;stroke:none;stroke-width:0.264583px;stroke-linecap:butt;stroke-linejoin:miter;stroke-opacity:1"
       x="108.66058"
       y="109.72871"
       id="text1833"><tspan
         sodipodi:role="line"
         id="tspan1831"
         style="font-style:normal;font-variant:normal;font-weight:normal;font-stretch:normal;font-family:Arimo;-inkscape-font-specification:Arimo;fill:#000000;stroke:none;stroke-width:0.264583px"
         x="108.66058"
         y="109.72871">Echuwabo</tspan></text><text
       xml:space="preserve"
       style="font-style:normal;font-variant:normal;font-weight:normal;font-stretch:normal;font-size:7.05556px;line-height:125%;font-family:Arimo;-inkscape-font-specification:Arimo;font-variant-ligatures:none;letter-spacing:0px;word-spacing:0px;writing-mode:lr-tb;display:inline;fill:#000000;stroke:none;stroke-width:0.264583px;stroke-linecap:butt;stroke-linejoin:miter;stroke-opacity:1"
       x="179.92073"
       y="99.155869"
       id="text1837"><tspan
         sodipodi:role="line"
         id="tspan1835"
         style="font-style:normal;font-variant:normal;font-weight:normal;font-stretch:normal;font-family:Arimo;-inkscape-font-specification:Arimo;fill:#000000;stroke:none;stroke-width:0.264583px"
         x="179.92073"
         y="99.155869">Ekoti</tspan></text><text
       xml:space="preserve"
       style="font-style:normal;font-variant:normal;font-weight:normal;font-stretch:normal;font-size:7.05556px;line-height:125%;font-family:Arimo;-inkscape-font-specification:Arimo;font-variant-ligatures:none;letter-spacing:0px;word-spacing:0px;writing-mode:lr-tb;display:inline;fill:#000000;stroke:none;stroke-width:0.264583px;stroke-linecap:butt;stroke-linejoin:miter;stroke-opacity:1"
       x="50.047489"
       y="118.19566"
       id="text1841"><tspan
         sodipodi:role="line"
         id="tspan1839"
         style="font-style:normal;font-variant:normal;font-weight:normal;font-stretch:normal;font-family:Arimo;-inkscape-font-specification:Arimo;fill:#000000;stroke:none;stroke-width:0.264583px"
         x="50.047489"
         y="118.19566">Elomwe</tspan></text><text
       xml:space="preserve"
       style="font-style:normal;font-variant:normal;font-weight:normal;font-stretch:normal;font-size:7.05556px;line-height:125%;font-family:Arimo;-inkscape-font-specification:Arimo;font-variant-ligatures:none;letter-spacing:0px;word-spacing:0px;writing-mode:lr-tb;display:inline;fill:#000000;stroke:none;stroke-width:0.264583px;stroke-linecap:butt;stroke-linejoin:miter;stroke-opacity:1"
       x="132.46519"
       y="55.665604"
       id="text1845"><tspan
         sodipodi:role="line"
         id="tspan1843"
         style="font-style:normal;font-variant:normal;font-weight:normal;font-stretch:normal;font-family:Arimo;-inkscape-font-specification:Arimo;fill:#000000;stroke:none;stroke-width:0.264583px"
         x="132.46519"
         y="55.665604">Emakhuwa</tspan></text><text
       xml:space="preserve"
       style="font-style:normal;font-variant:normal;font-weight:normal;font-stretch:normal;font-size:7.05556px;line-height:125%;font-family:Arimo;-inkscape-font-specification:Arimo;font-variant-ligatures:none;letter-spacing:0px;word-spacing:0px;writing-mode:lr-tb;display:inline;fill:#000000;stroke:none;stroke-width:0.264583px;stroke-linecap:butt;stroke-linejoin:miter;stroke-opacity:1"
       x="95.727463"
       y="220.37729"
       id="text1849"><tspan
         sodipodi:role="line"
         id="tspan1847"
         style="font-style:normal;font-variant:normal;font-weight:normal;font-stretch:normal;font-family:Arimo;-inkscape-font-specification:Arimo;fill:#000000;stroke:none;stroke-width:0.264583px"
         x="95.727463"
         y="220.37729">Gitonga</tspan></text><text
       xml:space="preserve"
       style="font-style:normal;font-variant:normal;font-weight:normal;font-stretch:normal;font-size:7.05556px;line-height:125%;font-family:Arimo;-inkscape-font-specification:Arimo;font-variant-ligatures:none;letter-spacing:0px;word-spacing:0px;writing-mode:lr-tb;display:inline;fill:#000000;stroke:none;stroke-width:0.264583px;stroke-linecap:butt;stroke-linejoin:miter;stroke-opacity:1"
       x="178.96147"
       y="25.144796"
       id="text1853"><tspan
         sodipodi:role="line"
         id="tspan1851"
         style="font-style:normal;font-variant:normal;font-weight:normal;font-stretch:normal;font-family:Arimo;-inkscape-font-specification:Arimo;fill:#000000;stroke:none;stroke-width:0.264583px"
         x="178.96147"
         y="25.144796">Kimwani</tspan></text><text
       xml:space="preserve"
       style="font-style:normal;font-variant:normal;font-weight:normal;font-stretch:normal;font-size:7.05556px;line-height:125%;font-family:Arimo;-inkscape-font-specification:Arimo;font-variant-ligatures:none;letter-spacing:0px;word-spacing:0px;writing-mode:lr-tb;display:inline;fill:#000000;stroke:none;stroke-width:0.264583px;stroke-linecap:butt;stroke-linejoin:miter;stroke-opacity:1"
       x="97.172775"
       y="17.129564"
       id="text1857"><tspan
         sodipodi:role="line"
         id="tspan1855"
         style="font-style:normal;font-variant:normal;font-weight:normal;font-stretch:normal;font-family:Arimo;-inkscape-font-specification:Arimo;fill:#000000;stroke:none;stroke-width:0.264583px"
         x="97.172775"
         y="17.129564">Kiswahili</tspan></text><text
       xml:space="preserve"
       style="font-style:normal;font-variant:normal;font-weight:normal;font-stretch:normal;font-size:7.05556px;line-height:125%;font-family:Arimo;-inkscape-font-specification:Arimo;font-variant-ligatures:none;letter-spacing:0px;word-spacing:0px;writing-mode:lr-tb;display:inline;fill:#000000;stroke:none;stroke-width:0.264583px;stroke-linecap:butt;stroke-linejoin:miter;stroke-opacity:1"
       x="55.395031"
       y="240.28345"
       id="text1861"><tspan
         sodipodi:role="line"
         id="tspan1859"
         style="font-style:normal;font-variant:normal;font-weight:normal;font-stretch:normal;font-family:Arimo;-inkscape-font-specification:Arimo;fill:#000000;stroke:none;stroke-width:0.264583px"
         x="55.395031"
         y="240.28345">Portuguese</tspan></text><text
       xml:space="preserve"
       style="font-style:normal;font-variant:normal;font-weight:normal;font-stretch:normal;font-size:7.05556px;line-height:125%;font-family:Arimo;-inkscape-font-specification:Arimo;font-variant-ligatures:none;letter-spacing:0px;word-spacing:0px;writing-mode:lr-tb;display:inline;fill:#000000;stroke:none;stroke-width:0.264583px;stroke-linecap:butt;stroke-linejoin:miter;stroke-opacity:1"
       x="94.342308"
       y="148.34889"
       id="text1861-2"><tspan
         sodipodi:role="line"
         id="tspan1859-2"
         style="font-style:normal;font-variant:normal;font-weight:normal;font-stretch:normal;font-family:Arimo;-inkscape-font-specification:Arimo;fill:#000000;stroke:none;stroke-width:0.264583px"
         x="94.342308"
         y="148.34889">Portuguese</tspan></text><text
       xml:space="preserve"
       style="font-style:normal;font-variant:normal;font-weight:normal;font-stretch:normal;font-size:7.05556px;line-height:125%;font-family:Arimo;-inkscape-font-specification:Arimo;font-variant-ligatures:none;letter-spacing:0px;word-spacing:0px;writing-mode:lr-tb;display:inline;fill:#000000;stroke:none;stroke-width:0.264583px;stroke-linecap:butt;stroke-linejoin:miter;stroke-opacity:1"
       x="148.27913"
       y="114.4825"
       id="text1861-8"><tspan
         sodipodi:role="line"
         id="tspan1859-9"
         style="font-style:normal;font-variant:normal;font-weight:normal;font-stretch:normal;font-family:Arimo;-inkscape-font-specification:Arimo;fill:#000000;stroke:none;stroke-width:0.264583px"
         x="148.27913"
         y="114.4825">Portuguese</tspan></text><text
       xml:space="preserve"
       style="font-style:normal;font-variant:normal;font-weight:normal;font-stretch:normal;font-size:7.05556px;line-height:125%;font-family:Arimo;-inkscape-font-specification:Arimo;font-variant-ligatures:none;letter-spacing:0px;word-spacing:0px;writing-mode:lr-tb;display:inline;fill:#000000;stroke:none;stroke-width:0.264583px;stroke-linecap:butt;stroke-linejoin:miter;stroke-opacity:1"
       x="128.19545"
       y="120.96551"
       id="text1861-7"><tspan
         sodipodi:role="line"
         id="tspan1859-3"
         style="font-style:normal;font-variant:normal;font-weight:normal;font-stretch:normal;font-family:Arimo;-inkscape-font-specification:Arimo;fill:#000000;stroke:none;stroke-width:0.264583px"
         x="128.19545"
         y="120.96551">Portuguese</tspan></text><text
       xml:space="preserve"
       style="font-style:normal;font-variant:normal;font-weight:normal;font-stretch:normal;font-size:7.05556px;line-height:125%;font-family:Arimo;-inkscape-font-specification:Arimo;font-variant-ligatures:none;letter-spacing:0px;word-spacing:0px;writing-mode:lr-tb;display:inline;fill:#000000;stroke:none;stroke-width:0.264583px;stroke-linecap:butt;stroke-linejoin:miter;stroke-opacity:1"
       x="34.952316"
       y="205.84399"
       id="text1865"><tspan
         sodipodi:role="line"
         id="tspan1863"
         style="font-style:normal;font-variant:normal;font-weight:normal;font-stretch:normal;font-family:Arimo;-inkscape-font-specification:Arimo;fill:#000000;stroke:none;stroke-width:0.264583px"
         x="34.952316"
         y="205.84399">Xichangana</tspan></text><text
       xml:space="preserve"
       style="font-style:normal;font-variant:normal;font-weight:normal;font-stretch:normal;font-size:7.05556px;line-height:125%;font-family:Arimo;-inkscape-font-specification:Arimo;font-variant-ligatures:none;letter-spacing:0px;word-spacing:0px;writing-mode:lr-tb;display:inline;fill:#000000;stroke:none;stroke-width:0.264583px;stroke-linecap:butt;stroke-linejoin:miter;stroke-opacity:1"
       x="145.67267"
       y="17.228655"
       id="text1869"><tspan
         sodipodi:role="line"
         id="tspan1867"
         style="font-style:normal;font-variant:normal;font-weight:normal;font-stretch:normal;font-family:Arimo;-inkscape-font-specification:Arimo;fill:#000000;stroke:none;stroke-width:0.264583px"
         x="145.67267"
         y="17.228655">Ximakonde</tspan></text><text
       xml:space="preserve"
       style="font-style:normal;font-variant:normal;font-weight:normal;font-stretch:normal;font-size:7.05556px;line-height:125%;font-family:Arimo;-inkscape-font-specification:Arimo;font-variant-ligatures:none;letter-spacing:0px;word-spacing:0px;writing-mode:lr-tb;display:inline;fill:#000000;stroke:none;stroke-width:0.264583px;stroke-linecap:butt;stroke-linejoin:miter;stroke-opacity:1"
       x="51.523689"
       y="253.65176"
       id="text1873"><tspan
         sodipodi:role="line"
         id="tspan1871"
         style="font-style:normal;font-variant:normal;font-weight:normal;font-stretch:normal;font-family:Arimo;-inkscape-font-specification:Arimo;fill:#000000;stroke:none;stroke-width:0.264583px"
         x="51.523689"
         y="253.65176">Xizronga</tspan></text><text
       xml:space="preserve"
       transform="scale(0.26458333)"
       id="text1875"
       style="font-style:normal;font-variant:normal;font-weight:bold;font-stretch:normal;font-size:26.6667px;line-height:125%;font-family:Arimo;-inkscape-font-specification:'Arimo Bold';font-variant-ligatures:none;letter-spacing:0px;word-spacing:0px;writing-mode:lr-tb;white-space:pre;shape-inside:url(#rect1877-6);display:inline;fill:#000000;stroke:none;stroke-width:1px;stroke-linecap:butt;stroke-linejoin:miter;stroke-opacity:1" /></g></svg>
